<svg id="home_icon" xmlns="http://www.w3.org/2000/svg" xmlns:xlink="http://www.w3.org/1999/xlink" width="16.832" height="16" viewBox="0 0 16.832 16">
  <defs>
    <clipPath id="clip-path">
      <rect id="Rectangle_3" data-name="Rectangle 3" width="16.832" height="16" fill="none"/>
    </clipPath>
  </defs>
  <g id="Group_10" data-name="Group 10" clip-path="url(#clip-path)">
    <path id="Path_6" data-name="Path 6" d="M16.8,6.186a.815.815,0,0,0-.324-.429l-1.267-.933h0L13.838,3.812l-.66-.485L11.639,2.195q-.9-.663-1.806-1.33L9.488.608C9.269.444,9.05.281,8.856.149L8.8.107a.74.74,0,0,0-.784.012L2.489,4.192c-.005,0-.012,0-.018.006L.721,5.482l-.352.266a.814.814,0,0,0-.344.443.751.751,0,0,0,.731.943.739.739,0,0,0,.37-.1l-.1-.168.12.162.11-.081V14.1c0,.235,0,.469,0,.7A1.211,1.211,0,0,0,2.454,16h11.76c.038,0,.076.005.113.005a1.408,1.408,0,0,0,.686-.179,1.209,1.209,0,0,0,.574-1.036V6.953l.119.088a.736.736,0,0,0,.375.1.747.747,0,0,0,.723-.956M9.7,14.478,7.15,14.49l0-5.165H9.6c.034,0,.067,0,.1,0Zm4.385.013H11.2v-4.9c0-.156,0-.311,0-.479V9.073a1.268,1.268,0,0,0-1.26-1.256H6.9A1.281,1.281,0,0,0,5.647,9.008a3.083,3.083,0,0,0,0,.333l0,.145v4.525c0,.157,0,.322,0,.48H2.759V6.625l0-.379c0-.133,0-.268,0-.4l.145-.106c.122-.09.245-.18.349-.259l.01-.01,4.9-3.6L8.42,1.68l.426.312q.882.651,1.765,1.3l3.478,2.562Z"/>
  </g>
</svg>
