<svg xmlns="http://www.w3.org/2000/svg" viewBox="0 0 452.961 107.38"><path d="M434.064,18.531c8.241,0,12.747,6.033,12.747,13.645,0,.848-.168,2.651-.168,2.651H426.8a8.265,8.265,0,0,0,8.623,7.723,13.094,13.094,0,0,0,8.066-3.209l2.989,4.961a17.5,17.5,0,0,1-11.561,4.341c-9.529,0-15.451-6.877-15.451-15.059C419.461,24.733,425.436,18.531,434.064,18.531Zm5.418,11.333c-.119-3.442-2.482-5.808-5.418-5.808a6.887,6.887,0,0,0-7.043,5.808Z" fill="#333"/><path d="M163.658,18.531c8.233,0,12.744,6.033,12.744,13.645,0,.848-.172,2.651-.172,2.651H156.384a8.265,8.265,0,0,0,8.629,7.723,13.085,13.085,0,0,0,8.063-3.209l2.986,4.961a17.488,17.488,0,0,1-11.556,4.341c-9.533,0-15.454-6.877-15.454-15.059C149.052,24.733,155.028,18.531,163.658,18.531Zm5.412,11.333c-.113-3.442-2.479-5.808-5.412-5.808a6.889,6.889,0,0,0-7.047,5.808Z" fill="#333"/><path d="M246.459,18.531c8.232,0,12.744,6.033,12.744,13.645,0,.848-.17,2.651-.17,2.651H239.186a8.262,8.262,0,0,0,8.623,7.723,13.089,13.089,0,0,0,8.068-3.209l2.986,4.961a17.486,17.486,0,0,1-11.56,4.341c-9.526,0-15.451-6.877-15.451-15.059C231.852,24.733,237.83,18.531,246.459,18.531Zm5.412,11.333c-.113-3.442-2.482-5.808-5.412-5.808a6.889,6.889,0,0,0-7.047,5.808Z" fill="#333"/><path d="M360.789,26.537a1.1,1.1,0,0,0-1.236-1.242H357.3V19.2h6.6c2.534,0,3.776,1.186,3.776,3.216v.844a8.2,8.2,0,0,1-.109,1.242h.109a11.057,11.057,0,0,1,10.156-5.976c6.371,0,10.035,3.326,10.035,10.94V40.692a1.123,1.123,0,0,0,1.235,1.239h2.259v6.033h-6.824c-2.7,0-3.832-1.128-3.832-3.833v-13.2c0-3.495-.9-5.862-4.515-5.862a7.878,7.878,0,0,0-7.721,5.862,11.957,11.957,0,0,0-.565,3.835V47.964h-7.109Z" fill="#333"/><path d="M339.689,18.531c8.795,0,15.791,6.258,15.791,15.053,0,8.858-7,15.059-15.791,15.059-8.74,0-15.734-6.2-15.734-15.059C323.955,24.789,330.949,18.531,339.689,18.531Zm0,24.019c4.684,0,8.575-3.6,8.575-8.966a8.554,8.554,0,1,0-17.088,0C331.176,38.947,335.066,42.55,339.689,42.55Z" fill="#333"/><path d="M320.592,33.584c0,8.909-4.963,15.059-12.748,15.059-6.2,0-8.627-4.063-8.627-4.063h-.11s.11,1.016.11,2.481v12.18h-7.16v-32.7a1.106,1.106,0,0,0-1.241-1.242h-2.255V19.2h6.312c2.6,0,3.668,1.072,3.668,2.538v1.015h.111s2.371-4.227,8.914-4.227C315.176,18.531,320.592,24.453,320.592,33.584Zm-14.381,9.021c4.23,0,7.162-3.549,7.162-9.021,0-5.694-3.332-8.907-7.217-8.907-4.8,0-7.164,4.4-7.164,8.851C298.992,39.9,302.486,42.605,306.211,42.605Z" fill="#333"/><path d="M266.289,38.832s3.666,4.225,8.572,4.225c2.2,0,3.893-.9,3.893-2.814,0-4.062-15.17-4.006-15.17-13.31,0-5.753,5.187-8.4,11.17-8.4,3.887,0,10.09,1.3,10.09,5.979V27.5h-6.315V26.088c0-1.355-2.029-2.032-3.611-2.032-2.535,0-4.283.9-4.283,2.595,0,4.51,15.283,3.611,15.283,13.194,0,5.415-4.8,8.8-11.057,8.8a15.781,15.781,0,0,1-11.955-5.132Z" fill="#333"/><path d="M397.266,38.832s3.66,4.225,8.572,4.225c2.2,0,3.892-.9,3.892-2.814,0-4.062-15.169-4.006-15.169-13.31,0-5.753,5.185-8.4,11.167-8.4,3.889,0,10.088,1.3,10.088,5.979V27.5H409.5V26.088c0-1.355-2.029-2.032-3.608-2.032-2.539,0-4.285.9-4.285,2.595,0,4.51,15.274,3.611,15.274,13.194,0,5.415-4.787,8.8-11.045,8.8a15.778,15.778,0,0,1-11.955-5.132Z" fill="#333"/><path d="M195.249,41.931c-1.975,0-5.7-.678-5.7-5.413V24.9h6.54V22.254c0-2.107-.941-3.049-3.049-3.049h-3.491V11.367h-6.99V19.2h-3.892v5.7h3.721v12.52c0,9.64,7.951,10.831,11.954,10.831a12.824,12.824,0,0,0,2.2-.174V41.82A6.68,6.68,0,0,1,195.249,41.931Z" fill="#333"/><path d="M127.956,7.217c9.815,0,14.61,5.08,14.61,5.08l-4.172,5.3a17.132,17.132,0,0,0-10.267-3.557c-6.94,0-12.864,5.474-12.864,13.6,0,8.745,5.977,14.105,13.146,14.105a14.508,14.508,0,0,0,10.152-4.176V34.579a1.1,1.1,0,0,0-1.242-1.24h-2.426V27.078h6.488c2.707,0,3.837,1.128,3.837,3.777v17.1H138.9V46.03c0-.843.06-1.693.06-1.693h-.116a17.483,17.483,0,0,1-11.788,4.29c-10.493,0-19.462-8.015-19.462-20.929A20.066,20.066,0,0,1,127.956,7.217Z" fill="#333"/><path d="M200.592,7.9h14.269c7.335,0,12.469,4.513,12.469,12.072,0,7.22-4.96,10.207-6.657,10.55v.109a4.591,4.591,0,0,1,1.979,2.033l3.893,7.727c.615,1.186,1.578,1.3,2.82,1.3h.727v6.263H226.2c-2.988,0-4.285-.456-5.586-2.992l-5.131-10.1C214.641,33.279,213.8,33,211.707,33h-3.722V47.951h-7.393Zm13.26,18.781c3.721,0,5.921-2.311,5.921-6.314,0-3.948-2.2-6.2-5.813-6.2h-5.975V26.679Z" fill="#333"/><path d="M3.744,0H83.876a3.747,3.747,0,0,1,3.747,3.747V52.01a3.749,3.749,0,0,1-3.749,3.749H3.747A3.747,3.747,0,0,1,0,52.012V3.744A3.744,3.744,0,0,1,3.744,0Z" fill="#00baff"/><path d="M86.776,1.4C76.445,17.536,60.294,32.273,43.694,31.919a30.958,30.958,0,0,1-18.988-6.727A30.007,30.007,0,0,1,14.188,7.965H12.339a4,4,0,0,0-3.976,4.578c.07.5.166,1.079.262,1.668A35.528,35.528,0,0,0,22.262,36.5,36.3,36.3,0,0,0,43.81,43.813c14.584-.044,30.216-9.27,43.813-33.173V3.749A3.7,3.7,0,0,0,86.776,1.4Z" fill="#fff"/><path d="M10.327,101.751a10.2,10.2,0,0,1-3.551-.609,8,8,0,0,1-2.871-1.8A8.293,8.293,0,0,1,2,96.389a12.284,12.284,0,0,1,.014-8.175,8.91,8.91,0,0,1,1.938-3.041,8.314,8.314,0,0,1,2.872-1.9,9.341,9.341,0,0,1,3.479-.65,7.526,7.526,0,0,1,3.452.735A8.852,8.852,0,0,1,16.1,85.031L13.919,87.69a7.931,7.931,0,0,0-1.5-1.046,4.157,4.157,0,0,0-1.98-.425,4.636,4.636,0,0,0-1.966.411A4.442,4.442,0,0,0,6.932,87.8a5.357,5.357,0,0,0-1,1.868,8.1,8.1,0,0,0-.354,2.489,6.808,6.808,0,0,0,1.287,4.428,4.739,4.739,0,0,0,3.89,1.57,4.284,4.284,0,0,0,1.1-.142,2.231,2.231,0,0,0,.877-.424V94.424H9.676v-3.4h6.733v8.486a7.944,7.944,0,0,1-2.546,1.584A9.227,9.227,0,0,1,10.327,101.751Z" fill="#8da1a8"/><path d="M27.583,101.751a7.831,7.831,0,0,1-2.8-.5,6.433,6.433,0,0,1-2.263-1.444,6.576,6.576,0,0,1-1.5-2.3,8.415,8.415,0,0,1-.537-3.112,7.983,7.983,0,0,1,.565-3.069,7.26,7.26,0,0,1,1.486-2.32A6.442,6.442,0,0,1,24.64,87.55a6.185,6.185,0,0,1,2.462-.51,6.249,6.249,0,0,1,2.616.51,5.15,5.15,0,0,1,1.868,1.414A6,6,0,0,1,32.7,91.1a9.313,9.313,0,0,1,.367,2.674,9.891,9.891,0,0,1-.056,1.074c-.038.34-.075.595-.113.765H24.5a3.433,3.433,0,0,0,1.259,2.249,3.906,3.906,0,0,0,2.39.721,5.768,5.768,0,0,0,3.027-.934l1.386,2.518a9.2,9.2,0,0,1-2.39,1.16A8.4,8.4,0,0,1,27.583,101.751Zm-3.112-8.883h5.063A3.186,3.186,0,0,0,29,90.944a2.1,2.1,0,0,0-1.81-.735,2.579,2.579,0,0,0-1.741.65A3.271,3.271,0,0,0,24.471,92.868Z" fill="#8da1a8"/><path d="M42.491,101.751a5.6,5.6,0,0,1-2.221-.4,3.877,3.877,0,0,1-1.5-1.1,4.48,4.48,0,0,1-.849-1.711,8.551,8.551,0,0,1-.269-2.221V90.633H35.73V87.55l2.149-.17.481-3.735h3.452V87.38h3.366v3.253H41.812v5.629a2.439,2.439,0,0,0,.5,1.711,1.72,1.72,0,0,0,1.315.524,2.992,2.992,0,0,0,.693-.085,4.764,4.764,0,0,0,.637-.2l.651,3.026q-.567.169-1.33.34A8.3,8.3,0,0,1,42.491,101.751Z" fill="#8da1a8"/><path d="M60.228,101.751a4.314,4.314,0,0,1-1.811-.34,2.926,2.926,0,0,1-1.174-.947,4.015,4.015,0,0,1-.636-1.472,8.686,8.686,0,0,1-.2-1.938V81.58h4.158V97.224a1.317,1.317,0,0,0,.241.906.686.686,0,0,0,.495.254h.24a.9.9,0,0,0,.269-.057l.509,3.084a4.436,4.436,0,0,1-.863.24A6.6,6.6,0,0,1,60.228,101.751Z" fill="#8da1a8"/><path d="M72.194,101.751a7.826,7.826,0,0,1-2.8-.5,6.446,6.446,0,0,1-2.264-1.444,6.588,6.588,0,0,1-1.5-2.3,8.415,8.415,0,0,1-.537-3.112,7.983,7.983,0,0,1,.565-3.069,7.26,7.26,0,0,1,1.486-2.32,6.432,6.432,0,0,1,2.107-1.456,6.18,6.18,0,0,1,2.461-.51,6.25,6.25,0,0,1,2.617.51A5.146,5.146,0,0,1,76.2,88.964,6,6,0,0,1,77.315,91.1a9.313,9.313,0,0,1,.367,2.674,9.891,9.891,0,0,1-.056,1.074q-.057.51-.113.765h-8.4a3.433,3.433,0,0,0,1.259,2.249,3.906,3.906,0,0,0,2.39.721,5.771,5.771,0,0,0,3.027-.934l1.386,2.518a9.2,9.2,0,0,1-2.39,1.16A8.4,8.4,0,0,1,72.194,101.751Zm-3.111-8.883h5.063a3.18,3.18,0,0,0-.538-1.924,2.092,2.092,0,0,0-1.81-.735,2.578,2.578,0,0,0-1.74.65A3.271,3.271,0,0,0,69.083,92.868Z" fill="#8da1a8"/><path d="M85.207,101.751a4.485,4.485,0,0,1-1.74-.326,3.7,3.7,0,0,1-1.315-.905,4.193,4.193,0,0,1-.835-1.344,4.564,4.564,0,0,1-.3-1.669,3.932,3.932,0,0,1,1.867-3.452,13.8,13.8,0,0,1,6.026-1.669,2.369,2.369,0,0,0-.552-1.485,2.135,2.135,0,0,0-1.655-.552,5.019,5.019,0,0,0-1.8.34A12.988,12.988,0,0,0,83,91.623l-1.5-2.744a14.612,14.612,0,0,1,2.843-1.329,9.648,9.648,0,0,1,3.155-.51,5.372,5.372,0,0,1,4.144,1.542,6.876,6.876,0,0,1,1.428,4.8v8.034H89.677l-.283-1.443h-.113a8.964,8.964,0,0,1-1.9,1.288A4.814,4.814,0,0,1,85.207,101.751Zm1.415-3.226a2.29,2.29,0,0,0,1.216-.31,6.023,6.023,0,0,0,1.075-.877V94.876a7.548,7.548,0,0,0-3.056.905,1.711,1.711,0,0,0-.848,1.415,1.169,1.169,0,0,0,.438,1A1.928,1.928,0,0,0,86.622,98.525Z" fill="#8da1a8"/><path d="M103,101.751a5.378,5.378,0,0,1-2.362-.51,5.077,5.077,0,0,1-1.811-1.457,6.835,6.835,0,0,1-1.159-2.306,10.634,10.634,0,0,1-.411-3.083,8.972,8.972,0,0,1,.5-3.084,7.474,7.474,0,0,1,1.3-2.305,5.64,5.64,0,0,1,1.867-1.456,4.95,4.95,0,0,1,2.165-.51,4.244,4.244,0,0,1,1.952.4,6.933,6.933,0,0,1,1.5,1.075l-.17-2.15V81.58h4.159v19.831h-3.395l-.283-1.386h-.113a6.6,6.6,0,0,1-1.726,1.231A4.459,4.459,0,0,1,103,101.751Zm1.075-3.4a2.661,2.661,0,0,0,1.23-.282,3.125,3.125,0,0,0,1.061-.99V91.34a3.3,3.3,0,0,0-1.159-.707,3.671,3.671,0,0,0-1.161-.2,2.22,2.22,0,0,0-1.753.949,4.675,4.675,0,0,0-.764,2.956,5.48,5.48,0,0,0,.664,3.055A2.154,2.154,0,0,0,104.076,98.355Z" fill="#8da1a8"/><path d="M119.748,101.751a8.193,8.193,0,0,1-2.843-.538,8.733,8.733,0,0,1-2.532-1.414l1.867-2.6a8.5,8.5,0,0,0,1.839,1.1,4.567,4.567,0,0,0,1.782.367,2.323,2.323,0,0,0,1.358-.312,1.022,1.022,0,0,0,.424-.877.888.888,0,0,0-.24-.607,2.439,2.439,0,0,0-.651-.495,6.22,6.22,0,0,0-.919-.41q-.51-.184-1.047-.411a13.392,13.392,0,0,1-1.3-.594,5.508,5.508,0,0,1-1.189-.834,4.115,4.115,0,0,1-.877-1.16,3.354,3.354,0,0,1-.339-1.542,4.187,4.187,0,0,1,.382-1.783,3.816,3.816,0,0,1,1.089-1.385,5.4,5.4,0,0,1,1.7-.892,7.06,7.06,0,0,1,2.206-.325,6.787,6.787,0,0,1,2.829.552,11.376,11.376,0,0,1,2.122,1.23l-1.867,2.489a7.422,7.422,0,0,0-1.5-.877,3.752,3.752,0,0,0-1.471-.31q-1.584,0-1.584,1.1a.81.81,0,0,0,.227.58,2.2,2.2,0,0,0,.607.439,7.607,7.607,0,0,0,.877.382q.5.184,1.033.382c.453.169.9.364,1.344.58a5.6,5.6,0,0,1,1.216.806,3.572,3.572,0,0,1,1.231,2.829,4.314,4.314,0,0,1-.368,1.783,3.926,3.926,0,0,1-1.1,1.428,5.51,5.51,0,0,1-1.811.962A7.961,7.961,0,0,1,119.748,101.751Z" fill="#8da1a8"/><path d="M129.875,106.9l-.849-2.207a5.809,5.809,0,0,0,2.405-1.471,2.773,2.773,0,0,0,.792-1.98H132a2.732,2.732,0,0,1-1.754-.608,2.094,2.094,0,0,1-.764-1.74,2.149,2.149,0,0,1,.764-1.725,2.74,2.74,0,0,1,1.839-.651,2.474,2.474,0,0,1,2.15,1.033,4.936,4.936,0,0,1,.735,2.9,6.4,6.4,0,0,1-1.3,4.031A7.2,7.2,0,0,1,129.875,106.9Z" fill="#8da1a8"/><path d="M151.544,107.38a11.789,11.789,0,0,1-2.305-.212,6.9,6.9,0,0,1-1.867-.637,3.324,3.324,0,0,1-1.259-1.1,2.833,2.833,0,0,1-.453-1.612,3.282,3.282,0,0,1,2.009-2.829v-.112a3.139,3.139,0,0,1-.934-.934,2.77,2.77,0,0,1,.085-2.9,4.331,4.331,0,0,1,1.132-1.174v-.113a4.741,4.741,0,0,1-1.316-1.456,4.123,4.123,0,0,1-.58-2.193,4.836,4.836,0,0,1,.481-2.22,4.694,4.694,0,0,1,1.287-1.585,5.494,5.494,0,0,1,1.853-.948,7.622,7.622,0,0,1,2.179-.311,6.353,6.353,0,0,1,2.178.34h5.12v3.026h-2.235a2.835,2.835,0,0,1,.326.793,4.113,4.113,0,0,1,.127,1.046,4.836,4.836,0,0,1-.425,2.107,3.993,3.993,0,0,1-1.174,1.472,5.052,5.052,0,0,1-1.753.862,7.907,7.907,0,0,1-2.164.283,5.472,5.472,0,0,1-1.7-.283,1.42,1.42,0,0,0-.4.453,1.343,1.343,0,0,0-.113.594.841.841,0,0,0,.467.792,3.766,3.766,0,0,0,1.655.255h2.263a7.715,7.715,0,0,1,3.974.835,2.946,2.946,0,0,1,1.372,2.729,3.864,3.864,0,0,1-.551,2.023,4.927,4.927,0,0,1-1.57,1.584A8.439,8.439,0,0,1,154.8,107,12.706,12.706,0,0,1,151.544,107.38Zm.651-2.6a4.809,4.809,0,0,0,2.32-.5,1.434,1.434,0,0,0,.905-1.231.859.859,0,0,0-.552-.876,4.36,4.36,0,0,0-1.6-.227h-1.443q-.736,0-1.188-.042a5.258,5.258,0,0,1-.792-.127,1.9,1.9,0,0,0-.764,1.386,1.3,1.3,0,0,0,.849,1.2A5.256,5.256,0,0,0,152.2,104.777Zm-.339-10.325a1.817,1.817,0,0,0,1.372-.58,2.487,2.487,0,0,0,.551-1.768,2.352,2.352,0,0,0-.551-1.683,1.817,1.817,0,0,0-1.372-.58,1.84,1.84,0,0,0-1.373.565,2.347,2.347,0,0,0-.551,1.7,2.487,2.487,0,0,0,.551,1.768A1.816,1.816,0,0,0,151.856,94.452Z" fill="#8da1a8"/><path d="M168.829,101.751a7.835,7.835,0,0,1-2.8-.5,6.442,6.442,0,0,1-2.263-1.444,6.588,6.588,0,0,1-1.5-2.3,8.4,8.4,0,0,1-.537-3.112,7.983,7.983,0,0,1,.565-3.069,7.258,7.258,0,0,1,1.485-2.32,6.446,6.446,0,0,1,2.108-1.456,6.18,6.18,0,0,1,2.461-.51,6.25,6.25,0,0,1,2.617.51,5.146,5.146,0,0,1,1.867,1.414,5.985,5.985,0,0,1,1.117,2.135,9.313,9.313,0,0,1,.368,2.674,9.637,9.637,0,0,1-.057,1.074c-.037.34-.075.595-.112.765h-8.4A3.436,3.436,0,0,0,167,97.861a3.911,3.911,0,0,0,2.391.721,5.773,5.773,0,0,0,3.027-.934l1.386,2.518a9.216,9.216,0,0,1-2.39,1.16A8.4,8.4,0,0,1,168.829,101.751Zm-3.112-8.883h5.064a3.18,3.18,0,0,0-.538-1.924,2.092,2.092,0,0,0-1.81-.735,2.576,2.576,0,0,0-1.74.65A3.272,3.272,0,0,0,165.717,92.868Z" fill="#8da1a8"/><path d="M183.737,101.751a5.6,5.6,0,0,1-2.22-.4,3.873,3.873,0,0,1-1.5-1.1,4.478,4.478,0,0,1-.848-1.711,8.551,8.551,0,0,1-.269-2.221V90.633h-1.924V87.55l2.15-.17.481-3.735h3.451V87.38h3.367v3.253h-3.367v5.629a2.439,2.439,0,0,0,.5,1.711,1.722,1.722,0,0,0,1.316.524,3,3,0,0,0,.693-.085,4.748,4.748,0,0,0,.636-.2l.651,3.026c-.377.113-.821.227-1.329.34A8.308,8.308,0,0,1,183.737,101.751Z" fill="#8da1a8"/><path d="M201.786,101.751a8.2,8.2,0,0,1-2.844-.538,8.74,8.74,0,0,1-2.531-1.414l1.866-2.6a8.553,8.553,0,0,0,1.839,1.1,4.575,4.575,0,0,0,1.782.367,2.319,2.319,0,0,0,1.358-.312,1.02,1.02,0,0,0,.425-.877.889.889,0,0,0-.241-.607,2.417,2.417,0,0,0-.65-.495,6.234,6.234,0,0,0-.92-.41q-.508-.184-1.046-.411a13.284,13.284,0,0,1-1.3-.594,5.459,5.459,0,0,1-1.189-.834,4.115,4.115,0,0,1-.877-1.16,3.354,3.354,0,0,1-.339-1.542,4.172,4.172,0,0,1,.382-1.783,3.8,3.8,0,0,1,1.089-1.385,5.393,5.393,0,0,1,1.7-.892,7.071,7.071,0,0,1,2.207-.325,6.79,6.79,0,0,1,2.829.552,11.4,11.4,0,0,1,2.121,1.23l-1.867,2.489a7.389,7.389,0,0,0-1.5-.877,3.759,3.759,0,0,0-1.471-.31q-1.585,0-1.584,1.1a.814.814,0,0,0,.226.58,2.206,2.206,0,0,0,.608.439,7.607,7.607,0,0,0,.877.382q.495.184,1.033.382c.452.169.9.364,1.343.58a5.6,5.6,0,0,1,1.217.806,3.572,3.572,0,0,1,1.231,2.829,4.314,4.314,0,0,1-.368,1.783,3.937,3.937,0,0,1-1.1,1.428,5.52,5.52,0,0,1-1.811.962A7.965,7.965,0,0,1,201.786,101.751Z" fill="#8da1a8"/><path d="M215.138,101.751a4.485,4.485,0,0,1-1.74-.326,3.693,3.693,0,0,1-1.315-.905,4.176,4.176,0,0,1-.835-1.344,4.564,4.564,0,0,1-.3-1.669,3.929,3.929,0,0,1,1.867-3.452,13.8,13.8,0,0,1,6.026-1.669,2.369,2.369,0,0,0-.552-1.485,2.137,2.137,0,0,0-1.655-.552,5.015,5.015,0,0,0-1.8.34,13.044,13.044,0,0,0-1.91.934l-1.5-2.744a14.612,14.612,0,0,1,2.843-1.329,9.642,9.642,0,0,1,3.154-.51,5.37,5.37,0,0,1,4.144,1.542,6.876,6.876,0,0,1,1.429,4.8v8.034h-3.4l-.283-1.443h-.113a8.958,8.958,0,0,1-1.9,1.288A4.814,4.814,0,0,1,215.138,101.751Zm1.414-3.226a2.3,2.3,0,0,0,1.217-.31,6.023,6.023,0,0,0,1.075-.877V94.876a7.548,7.548,0,0,0-3.056.905,1.711,1.711,0,0,0-.848,1.415,1.169,1.169,0,0,0,.438,1A1.925,1.925,0,0,0,216.552,98.525Z" fill="#8da1a8"/><path d="M231.744,101.751a4.31,4.31,0,0,1-1.811-.34,2.936,2.936,0,0,1-1.175-.947,4.014,4.014,0,0,1-.635-1.472,8.624,8.624,0,0,1-.2-1.938V81.58h4.159V97.224a1.323,1.323,0,0,0,.24.906.688.688,0,0,0,.5.254h.241a.91.91,0,0,0,.269-.057l.508,3.084a4.4,4.4,0,0,1-.862.24A6.61,6.61,0,0,1,231.744,101.751Z" fill="#8da1a8"/><path d="M243.71,101.751a7.831,7.831,0,0,1-2.8-.5,6.433,6.433,0,0,1-2.263-1.444,6.576,6.576,0,0,1-1.5-2.3,8.415,8.415,0,0,1-.537-3.112,7.983,7.983,0,0,1,.565-3.069,7.243,7.243,0,0,1,1.486-2.32,6.432,6.432,0,0,1,2.107-1.456,6.177,6.177,0,0,1,2.461-.51,6.25,6.25,0,0,1,2.617.51,5.146,5.146,0,0,1,1.867,1.414A6,6,0,0,1,248.83,91.1a9.313,9.313,0,0,1,.368,2.674,9.884,9.884,0,0,1-.057,1.074q-.057.51-.113.765h-8.4a3.436,3.436,0,0,0,1.258,2.249,3.914,3.914,0,0,0,2.391.721,5.768,5.768,0,0,0,3.027-.934l1.386,2.518a9.207,9.207,0,0,1-2.391,1.16A8.392,8.392,0,0,1,243.71,101.751ZM240.6,92.868h5.065a3.186,3.186,0,0,0-.538-1.924,2.1,2.1,0,0,0-1.811-.735,2.574,2.574,0,0,0-1.739.65A3.278,3.278,0,0,0,240.6,92.868Z" fill="#8da1a8"/><path d="M257.627,101.751a8.188,8.188,0,0,1-2.842-.538,8.751,8.751,0,0,1-2.533-1.414l1.868-2.6a8.5,8.5,0,0,0,1.839,1.1,4.571,4.571,0,0,0,1.782.367,2.323,2.323,0,0,0,1.358-.312,1.024,1.024,0,0,0,.424-.877.888.888,0,0,0-.24-.607,2.423,2.423,0,0,0-.651-.495,6.234,6.234,0,0,0-.92-.41c-.338-.123-.688-.26-1.046-.411a13.284,13.284,0,0,1-1.3-.594,5.484,5.484,0,0,1-1.189-.834,4.115,4.115,0,0,1-.877-1.16,3.354,3.354,0,0,1-.338-1.542,4.172,4.172,0,0,1,.381-1.783,3.805,3.805,0,0,1,1.089-1.385,5.393,5.393,0,0,1,1.7-.892,7.076,7.076,0,0,1,2.207-.325,6.787,6.787,0,0,1,2.829.552,11.408,11.408,0,0,1,2.122,1.23l-1.867,2.489a7.368,7.368,0,0,0-1.5-.877,3.759,3.759,0,0,0-1.471-.31q-1.584,0-1.584,1.1a.814.814,0,0,0,.226.58,2.213,2.213,0,0,0,.609.439,7.531,7.531,0,0,0,.877.382c.329.123.674.251,1.032.382.453.169.9.364,1.344.58a5.628,5.628,0,0,1,1.217.806,3.575,3.575,0,0,1,1.23,2.829,4.314,4.314,0,0,1-.368,1.783,3.918,3.918,0,0,1-1.1,1.428,5.5,5.5,0,0,1-1.81.962A7.963,7.963,0,0,1,257.627,101.751Z" fill="#8da1a8"/><path d="M267.755,106.9l-.848-2.207a5.825,5.825,0,0,0,2.4-1.471,2.773,2.773,0,0,0,.792-1.98h-.226a2.732,2.732,0,0,1-1.754-.608,2.1,2.1,0,0,1-.764-1.74,2.152,2.152,0,0,1,.764-1.725,2.739,2.739,0,0,1,1.838-.651,2.473,2.473,0,0,1,2.151,1.033,4.936,4.936,0,0,1,.735,2.9,6.393,6.393,0,0,1-1.3,4.031A7.19,7.19,0,0,1,267.755,106.9Z" fill="#8da1a8"/><path d="M289.423,107.38a11.8,11.8,0,0,1-2.305-.212,6.921,6.921,0,0,1-1.867-.637,3.331,3.331,0,0,1-1.259-1.1,2.832,2.832,0,0,1-.452-1.612,3.282,3.282,0,0,1,2.008-2.829v-.112a3.124,3.124,0,0,1-.933-.934,2.77,2.77,0,0,1,.085-2.9,4.312,4.312,0,0,1,1.131-1.174v-.113a4.741,4.741,0,0,1-1.316-1.456,4.114,4.114,0,0,1-.58-2.193,4.823,4.823,0,0,1,.482-2.22A4.694,4.694,0,0,1,285.7,88.3a5.49,5.49,0,0,1,1.852-.948,7.622,7.622,0,0,1,2.179-.311,6.345,6.345,0,0,1,2.178.34h5.121v3.026H294.8a2.835,2.835,0,0,1,.326.793,4.067,4.067,0,0,1,.128,1.046,4.851,4.851,0,0,1-.425,2.107,4.013,4.013,0,0,1-1.174,1.472,5.057,5.057,0,0,1-1.754.862,7.9,7.9,0,0,1-2.164.283,5.471,5.471,0,0,1-1.7-.283,1.425,1.425,0,0,0-.4.453,1.343,1.343,0,0,0-.113.594.843.843,0,0,0,.467.792,3.766,3.766,0,0,0,1.655.255h2.263a7.713,7.713,0,0,1,3.974.835,2.946,2.946,0,0,1,1.372,2.729,3.864,3.864,0,0,1-.55,2.023,4.941,4.941,0,0,1-1.571,1.584A8.42,8.42,0,0,1,292.677,107,12.719,12.719,0,0,1,289.423,107.38Zm.652-2.6a4.805,4.805,0,0,0,2.319-.5,1.432,1.432,0,0,0,.9-1.231.858.858,0,0,0-.551-.876,4.369,4.369,0,0,0-1.6-.227h-1.442q-.736,0-1.189-.042a5.28,5.28,0,0,1-.792-.127,1.9,1.9,0,0,0-.764,1.386,1.3,1.3,0,0,0,.849,1.2A5.258,5.258,0,0,0,290.075,104.777Zm-.34-10.325a1.815,1.815,0,0,0,1.372-.58,2.488,2.488,0,0,0,.552-1.768,2.352,2.352,0,0,0-.552-1.683,1.815,1.815,0,0,0-1.372-.58,1.839,1.839,0,0,0-1.372.565,2.343,2.343,0,0,0-.552,1.7,2.483,2.483,0,0,0,.552,1.768A1.815,1.815,0,0,0,289.735,94.452Z" fill="#8da1a8"/><path d="M306.709,101.751a7.831,7.831,0,0,1-2.8-.5,6.433,6.433,0,0,1-2.263-1.444,6.576,6.576,0,0,1-1.5-2.3,8.415,8.415,0,0,1-.537-3.112,7.983,7.983,0,0,1,.565-3.069,7.243,7.243,0,0,1,1.486-2.32,6.432,6.432,0,0,1,2.107-1.456,6.177,6.177,0,0,1,2.461-.51,6.25,6.25,0,0,1,2.617.51,5.146,5.146,0,0,1,1.867,1.414,5.987,5.987,0,0,1,1.118,2.135,9.313,9.313,0,0,1,.368,2.674,9.884,9.884,0,0,1-.057,1.074q-.057.51-.113.765h-8.4a3.436,3.436,0,0,0,1.258,2.249,3.914,3.914,0,0,0,2.391.721,5.768,5.768,0,0,0,3.027-.934l1.386,2.518a9.207,9.207,0,0,1-2.391,1.16A8.392,8.392,0,0,1,306.709,101.751ZM303.6,92.868h5.065a3.186,3.186,0,0,0-.538-1.924,2.1,2.1,0,0,0-1.811-.735,2.574,2.574,0,0,0-1.739.65A3.278,3.278,0,0,0,303.6,92.868Z" fill="#8da1a8"/><path d="M321.617,101.751a5.6,5.6,0,0,1-2.221-.4,3.877,3.877,0,0,1-1.5-1.1,4.481,4.481,0,0,1-.85-1.711,8.639,8.639,0,0,1-.268-2.221V90.633h-1.924V87.55l2.15-.17.481-3.735h3.452V87.38H324.3v3.253h-3.366v5.629a2.435,2.435,0,0,0,.5,1.711,1.72,1.72,0,0,0,1.316.524,2.99,2.99,0,0,0,.692-.085,4.764,4.764,0,0,0,.637-.2l.65,3.026q-.565.169-1.329.34A8.3,8.3,0,0,1,321.617,101.751Z" fill="#8da1a8"/><path d="M340.542,107.38a11.8,11.8,0,0,1-2.306-.212,6.921,6.921,0,0,1-1.867-.637,3.339,3.339,0,0,1-1.259-1.1,2.832,2.832,0,0,1-.452-1.612,3.282,3.282,0,0,1,2.009-2.829v-.112a3.127,3.127,0,0,1-.934-.934,2.77,2.77,0,0,1,.085-2.9,4.327,4.327,0,0,1,1.131-1.174v-.113a4.753,4.753,0,0,1-1.316-1.456,4.123,4.123,0,0,1-.58-2.193,4.823,4.823,0,0,1,.482-2.22,4.694,4.694,0,0,1,1.287-1.585,5.49,5.49,0,0,1,1.852-.948,7.627,7.627,0,0,1,2.179-.311,6.345,6.345,0,0,1,2.178.34h5.121v3.026h-2.235a2.866,2.866,0,0,1,.325.793,4.067,4.067,0,0,1,.128,1.046,4.851,4.851,0,0,1-.425,2.107,4.013,4.013,0,0,1-1.174,1.472,5.057,5.057,0,0,1-1.754.862,7.9,7.9,0,0,1-2.164.283,5.471,5.471,0,0,1-1.7-.283,1.438,1.438,0,0,0-.4.453,1.343,1.343,0,0,0-.113.594.843.843,0,0,0,.467.792,3.766,3.766,0,0,0,1.655.255h2.263a7.713,7.713,0,0,1,3.974.835,2.946,2.946,0,0,1,1.372,2.729,3.864,3.864,0,0,1-.55,2.023,4.931,4.931,0,0,1-1.571,1.584A8.42,8.42,0,0,1,343.8,107,12.706,12.706,0,0,1,340.542,107.38Zm.651-2.6a4.805,4.805,0,0,0,2.319-.5,1.433,1.433,0,0,0,.906-1.231.859.859,0,0,0-.552-.876,4.366,4.366,0,0,0-1.6-.227h-1.442q-.735,0-1.189-.042a5.3,5.3,0,0,1-.792-.127,1.9,1.9,0,0,0-.763,1.386,1.3,1.3,0,0,0,.848,1.2A5.261,5.261,0,0,0,341.193,104.777Zm-.34-10.325a1.815,1.815,0,0,0,1.372-.58,2.488,2.488,0,0,0,.552-1.768,2.352,2.352,0,0,0-.552-1.683,1.815,1.815,0,0,0-1.372-.58,1.839,1.839,0,0,0-1.372.565,2.343,2.343,0,0,0-.552,1.7,2.483,2.483,0,0,0,.552,1.768A1.815,1.815,0,0,0,340.853,94.452Z" fill="#8da1a8"/><path d="M352.056,101.411V87.38h3.4l.283,2.461h.113a5.43,5.43,0,0,1,1.839-2.123,4,4,0,0,1,2.15-.678,5.539,5.539,0,0,1,.976.071,2.935,2.935,0,0,1,.692.212l-.678,3.593a6.908,6.908,0,0,0-.736-.17,4.955,4.955,0,0,0-.792-.057,3.036,3.036,0,0,0-1.655.566,4.1,4.1,0,0,0-1.429,2.008v8.148Z" fill="#8da1a8"/><path d="M370.472,101.751a6.926,6.926,0,0,1-2.574-.5,6.526,6.526,0,0,1-2.192-1.429,6.858,6.858,0,0,1-1.514-2.306,8.93,8.93,0,0,1,0-6.252,6.843,6.843,0,0,1,1.514-2.305,6.526,6.526,0,0,1,2.192-1.429,6.906,6.906,0,0,1,2.574-.495,6.8,6.8,0,0,1,2.561.495,6.578,6.578,0,0,1,2.178,1.429,6.856,6.856,0,0,1,1.513,2.305,8.915,8.915,0,0,1,0,6.252,6.87,6.87,0,0,1-1.513,2.306,6.578,6.578,0,0,1-2.178,1.429A6.822,6.822,0,0,1,370.472,101.751Zm0-3.367a2.111,2.111,0,0,0,1.924-1.075,6.857,6.857,0,0,0,0-5.828,2.271,2.271,0,0,0-3.861,0,6.984,6.984,0,0,0,0,5.828A2.1,2.1,0,0,0,370.472,98.384Z" fill="#8da1a8"/><path d="M383.682,101.411,380.174,87.38h4.131l1.358,6.505q.169,1.049.311,2.066t.311,2.094h.113q.2-1.075.382-2.122t.438-2.038l1.557-6.505h3.592l1.585,6.505q.253,1.049.452,2.066t.425,2.094h.113q.2-1.075.325-2.094t.325-2.066l1.329-6.505h3.848L397.4,101.411h-4.866l-1.273-5.6q-.226-.988-.4-1.979t-.367-2.122h-.114q-.2,1.132-.353,2.122t-.354,1.979l-1.245,5.6Z" fill="#8da1a8"/><path d="M406.767,85.314a2.483,2.483,0,0,1-1.725-.608,2.007,2.007,0,0,1-.68-1.57,1.965,1.965,0,0,1,.68-1.556,2.822,2.822,0,0,1,3.464,0,1.985,1.985,0,0,1,.665,1.556,2.028,2.028,0,0,1-.665,1.57A2.473,2.473,0,0,1,406.767,85.314Zm-2.065,16.1V87.38h4.158v14.031Z" fill="#8da1a8"/><path d="M413.923,101.411V87.38h3.395l.283,1.782h.113a11.259,11.259,0,0,1,1.98-1.486,4.857,4.857,0,0,1,2.518-.636,3.747,3.747,0,0,1,3.324,1.5,7.253,7.253,0,0,1,1.033,4.158v8.713H422.41V93.235a3.8,3.8,0,0,0-.41-2.093,1.514,1.514,0,0,0-1.316-.566,2.514,2.514,0,0,0-1.357.353,8.058,8.058,0,0,0-1.245,1v9.477Z" fill="#8da1a8"/><path d="M436.526,107.38a11.807,11.807,0,0,1-2.306-.212,6.921,6.921,0,0,1-1.867-.637,3.339,3.339,0,0,1-1.259-1.1,2.84,2.84,0,0,1-.452-1.612,3.282,3.282,0,0,1,2.009-2.829v-.112a3.127,3.127,0,0,1-.934-.934,2.593,2.593,0,0,1-.368-1.443,2.625,2.625,0,0,1,.453-1.457,4.327,4.327,0,0,1,1.131-1.174v-.113a4.738,4.738,0,0,1-1.315-1.456,4.114,4.114,0,0,1-.58-2.193,4.836,4.836,0,0,1,.481-2.22,4.694,4.694,0,0,1,1.287-1.585,5.485,5.485,0,0,1,1.853-.948,7.62,7.62,0,0,1,2.178-.311,6.341,6.341,0,0,1,2.178.34h5.121v3.026H441.9a2.836,2.836,0,0,1,.325.793,4.067,4.067,0,0,1,.128,1.046,4.851,4.851,0,0,1-.425,2.107,4.013,4.013,0,0,1-1.174,1.472,5.06,5.06,0,0,1-1.753.862,7.9,7.9,0,0,1-2.165.283,5.475,5.475,0,0,1-1.7-.283,1.433,1.433,0,0,0-.4.453,1.342,1.342,0,0,0-.114.594.844.844,0,0,0,.467.792,3.772,3.772,0,0,0,1.655.255h2.263a7.714,7.714,0,0,1,3.975.835,2.946,2.946,0,0,1,1.372,2.729,3.864,3.864,0,0,1-.551,2.023,4.937,4.937,0,0,1-1.57,1.584A8.432,8.432,0,0,1,439.78,107,12.719,12.719,0,0,1,436.526,107.38Zm.651-2.6a4.809,4.809,0,0,0,2.32-.5,1.434,1.434,0,0,0,.9-1.231.859.859,0,0,0-.552-.876,4.36,4.36,0,0,0-1.6-.227h-1.443c-.49,0-.887-.014-1.188-.042a5.258,5.258,0,0,1-.792-.127,1.9,1.9,0,0,0-.764,1.386,1.3,1.3,0,0,0,.849,1.2A5.253,5.253,0,0,0,437.177,104.777Zm-.34-10.325a1.819,1.819,0,0,0,1.373-.58,2.487,2.487,0,0,0,.551-1.768,2.352,2.352,0,0,0-.551-1.683,1.819,1.819,0,0,0-1.373-.58,1.842,1.842,0,0,0-1.372.565,2.343,2.343,0,0,0-.551,1.7,2.483,2.483,0,0,0,.551,1.768A1.818,1.818,0,0,0,436.837,94.452Z" fill="#8da1a8"/><path d="M450.444,101.751a2.392,2.392,0,0,1-1.8-.75,2.569,2.569,0,0,1-.722-1.853,2.606,2.606,0,0,1,.722-1.882,2.529,2.529,0,0,1,3.593,0,2.609,2.609,0,0,1,.72,1.882,2.571,2.571,0,0,1-.72,1.853A2.4,2.4,0,0,1,450.444,101.751Z" fill="#8da1a8"/></svg>