<?xml version="1.0" encoding="UTF-8"?> <svg xmlns="http://www.w3.org/2000/svg" width="21" height="20" viewBox="0 0 21 20" fill="none"> <path id="Facebook Copy" fill-rule="evenodd" clip-rule="evenodd" d="M10.8624 20H1.28359C0.673779 20 0.179749 19.5057 0.179749 18.8961V1.10384C0.179749 0.494104 0.673856 0 1.28359 0H19.076C19.6856 0 20.1797 0.494104 20.1797 1.10384V18.8961C20.1797 19.5057 19.6855 20 19.076 20H13.9795V12.2549H16.5791L16.9684 9.23649H13.9795V7.30943C13.9795 6.43554 14.2221 5.84 15.4753 5.84L17.0736 5.83931V3.13962C16.7972 3.10284 15.8484 3.02065 14.7446 3.02065C12.4401 3.02065 10.8624 4.4273 10.8624 7.0105V9.23649H8.25605V12.2549H10.8624V20Z" fill="#0077C5"></path> </svg> 