<?xml version="1.0" encoding="UTF-8"?> <svg xmlns="http://www.w3.org/2000/svg" xmlns:xlink="http://www.w3.org/1999/xlink" width="691" height="490" viewBox="0 0 691 490"> <defs> <rect id="mpsw2xt2ja" width="691" height="490" x="0" y="0" rx="4"></rect> <path id="b0w4iihvuc" d="M149.579 73.737L149.579 0.333 0.001 0.333 0.001 73.737z"></path> </defs> <g fill="none" fill-rule="evenodd"> <g> <g> <g transform="translate(-640 -994) translate(109 890) translate(531 104)"> <mask id="8hcud4p5eb" fill="#fff"> <use xlink:href="#mpsw2xt2ja"></use> </mask> <use fill="#D1E4F1" xlink:href="#mpsw2xt2ja"></use> <path fill="#C5DDEE" fill-rule="nonzero" d="M692 410v-92.12H579.104l48.12-34.255c32.85-23.146 63.85-49.532 63.85-103.692C691.075 103.089 623.986 73 559.21 73 489.343 73 421.329 110.959 413 196.135l105.03 12.035c1.388-24.071 14.343-39.347 31.925-39.347 16.657 0 24.06 11.11 24.06 23.145 0 10.647-7.866 20.831-18.045 28.701L426.418 324.361V410H692z" mask="url(#8hcud4p5eb)"></path> <circle cx="346" cy="245" r="148" fill="#FFF" mask="url(#8hcud4p5eb)"></circle> <g mask="url(#8hcud4p5eb)"> <g> <g> <path fill="#CFE6F0" d="M26.786 23.958v37.774c0 2.262-1.685 4.234-4.077 4.775l-20.03 4.525V16.934l19.387 2.14c2.692.3 4.72 2.393 4.72 4.884" transform="translate(271 181) translate(0 54)"></path> <g transform="translate(271 181) translate(0 54)"> <mask id="hkk58pghkd" fill="#fff"> <use xlink:href="#b0w4iihvuc"></use> </mask> <path fill="#4F5661" d="M96.936 57.886c-.313.205-.718.4-1.16.592.416-1.155.678-2.38.678-3.676 0-5.967-4.805-10.82-10.714-10.82H61.633c-1.479 0-2.679 1.212-2.679 2.705 0 1.496 1.2 2.705 2.679 2.705H85.74c2.954 0 5.357 2.43 5.357 5.41 0 2.984-2.403 5.41-5.357 5.41H53.728l-8.153-.013c-9.836 0-14.706-6.55-16.11-8.84V33.163c0-4.474 3.603-8.115 8.036-8.115h39.284c2.657 0 5.253-.765 7.372-2.131l28.628-16.054c3.378-1.856 7.374-1.415 10.313.998l-33.38 20.282c-1.268.768-1.677 2.429-.914 3.71.5.842 1.388 1.31 2.296 1.31.471 0 .948-.125 1.379-.387l34.535-20.98.313-.194c4.31-2.334 9.64-1.215 12.539 2.497l1.052 1.606-3.399 2.134c-3.15-.497-6.463-.045-9.45 1.553-.08.043-.16.095-.24.143L99.134 39.033c-1.227.835-1.55 2.515-.726 3.757.825 1.239 2.489 1.563 3.718.733l28.57-19.414c4.136-2.142 9.23-1.052 12.118 2.59l.217.286-46.096 30.9zm-72.828 3.846c0 .993-.816 1.872-1.987 2.137L5.358 67.656V19.952l16.415 1.812c1.334.146 2.335 1.09 2.335 2.194v37.774zm124.918-35.734l-1.993-2.635c-.961-1.215-2.1-2.202-3.32-3.043l2.372-1.488c.614-.384 1.045-1.006 1.2-1.717.153-.715.019-1.458-.38-2.07l-2.697-4.108C140.369 6 134.112 4.028 128.25 5.546c-.115-.222-.222-.45-.401-.639-4.6-4.82-11.84-5.97-17.644-2.786L81.422 18.27c-1.396.898-3 1.368-4.637 1.368H37.501c-3.093 0-5.909 1.11-8.177 2.895-.643-3.217-3.426-5.754-6.967-6.149l-19.388-2.14c-.763-.089-1.513.16-2.078.677-.566.514-.89 1.244-.89 2.012v54.099c0 .822.367 1.598 1.005 2.112.477.387 1.069.593 1.674.593.195 0 .388-.02.584-.065l20.03-4.526c3.632-.822 6.172-3.87 6.172-7.414v-2.158c3.42 3.054 8.657 6.034 16.103 6.034l8.028.014h.126l32.614.054c3.565 0 10.117-1.012 13.546-3.273l48.498-32.51c.619-.414 1.04-1.066 1.162-1.807.124-.739-.064-1.493-.517-2.088z" mask="url(#hkk58pghkd)"></path> </g> </g> <g> <path fill="#CFE6F0" d="M5.336 49.392L90.704 49.392 90.704 45.864 5.336 45.864z" transform="translate(271 181) translate(27)"></path> <path fill="#4F5661" d="M5.336 3.528c-.98 0-1.779.79-1.779 1.764v35.28c0 .974.799 1.764 1.779 1.764h85.368c.98 0 1.779-.79 1.779-1.764V5.292c0-.974-.799-1.764-1.779-1.764H5.336zm85.368 42.336H5.336C2.394 45.864 0 43.49 0 40.572V5.292C0 2.374 2.394 0 5.336 0h85.368c2.942 0 5.336 2.374 5.336 5.292v35.28c0 2.918-2.394 5.292-5.336 5.292z" transform="translate(271 181) translate(27)"></path> <path fill="#53C27C" d="M31.352 27.695c0-3.792-4.01-5.496-7.484-6.645-2.9-.968-4.225-1.91-4.225-3.291 0-.942 1.11-2.059 3.151-2.059 1.967 0 4.692 1.47 4.976 1.616.43.236.968 0 1.254-.351l1.363-1.676c.249-.295.142-.794-.217-.97-.585-.362-2.572-1.436-5.27-1.822V9.702c0-.488-.4-.882-.89-.882h-1.778c-.492 0-.89.394-.89.882v2.76c-4.477.536-6.39 3.19-6.39 5.531 0 3.47 3.366 5.234 6.73 6.35 3.01 1 4.55 2.03 4.55 3.529 0 1.263-1.398 2.265-3.258 2.265-2.33 0-5.229-1.736-5.409-1.824-.322-.207-.93-.207-1.216.206l-1.29 1.822c-.321.471-.144.618.178.882.617.48 2.673 1.824 6.106 2.193v2.746c0 .487.397.882.89.882h1.778c.489 0 .889-.395.889-.882v-2.77c4.003-.57 6.452-3.042 6.452-5.697" transform="translate(271 181) translate(27)"></path> <path fill="#CFE6F0" d="M80.033 17.64h-35.57c-.982 0-1.779.789-1.779 1.764s.797 1.764 1.779 1.764h35.57c.982 0 1.779-.789 1.779-1.764s-.797-1.764-1.779-1.764M72.92 26.46H44.462c-.982 0-1.779.789-1.779 1.764s.797 1.764 1.779 1.764h28.456c.982 0 1.779-.789 1.779-1.764s-.797-1.764-1.779-1.764" transform="translate(271 181) translate(27)"></path> </g> </g> </g> </g> </g> </g> </g> </svg> 