<?xml version="1.0" encoding="UTF-8"?> <svg xmlns="http://www.w3.org/2000/svg" width="21" height="20" viewBox="0 0 21 20" fill="none"> <path d="M14.3986 0H6.31442C4.73481 0.00185632 3.22044 0.630245 2.10358 1.74729C0.98672 2.86434 0.358585 4.37882 0.356995 5.95843L0.356995 14.0426C0.358851 15.6222 0.98724 17.1366 2.10429 18.2534C3.22134 19.3703 4.73581 19.9984 6.31542 20H14.3996C15.9792 19.9981 17.4935 19.3698 18.6104 18.2527C19.7273 17.1357 20.3554 15.6212 20.357 14.0416V5.95743C20.3551 4.37781 19.7267 2.86345 18.6097 1.74659C17.4927 0.629725 15.9782 0.00159073 14.3986 0V0ZM18.3455 14.0416C18.3455 14.5599 18.2434 15.0731 18.045 15.552C17.8467 16.0308 17.556 16.466 17.1895 16.8325C16.8229 17.199 16.3878 17.4897 15.909 17.688C15.4301 17.8864 14.9169 17.9885 14.3986 17.9885H6.31442C5.26781 17.9882 4.26415 17.5723 3.52418 16.8321C2.78421 16.0919 2.36851 15.0882 2.36851 14.0416V5.95743C2.36878 4.91081 2.78473 3.90716 3.52489 3.16719C4.26505 2.42722 5.26881 2.01152 6.31542 2.01152H14.3996C15.4462 2.01179 16.4498 2.42774 17.1898 3.1679C17.9298 3.90806 18.3455 4.91182 18.3455 5.95843V14.0426V14.0416Z" fill="#0077C5"></path> <path d="M10.3565 4.82745C8.98553 4.82957 7.67134 5.3752 6.70201 6.34471C5.73268 7.31423 5.18731 8.62854 5.18546 9.99951C5.18705 11.3708 5.73243 12.6855 6.70201 13.6553C7.67158 14.6251 8.98619 15.1707 10.3575 15.1726C11.729 15.171 13.0439 14.6254 14.0136 13.6557C14.9834 12.6859 15.529 11.371 15.5306 9.99951C15.5284 8.62819 14.9825 7.31369 14.0126 6.3443C13.0426 5.37492 11.7278 4.82978 10.3565 4.82846V4.82745ZM10.3565 13.161C9.51828 13.161 8.71439 12.8281 8.12167 12.2353C7.52896 11.6426 7.19597 10.8387 7.19597 10.0005C7.19597 9.16228 7.52896 8.35839 8.12167 7.76567C8.71439 7.17296 9.51828 6.83998 10.3565 6.83998C11.1947 6.83998 11.9986 7.17296 12.5913 7.76567C13.184 8.35839 13.517 9.16228 13.517 10.0005C13.517 10.8387 13.184 11.6426 12.5913 12.2353C11.9986 12.8281 11.1947 13.161 10.3565 13.161Z" fill="#0077C5"></path> <path d="M15.5396 6.10572C16.224 6.10572 16.7788 5.55092 16.7788 4.86655C16.7788 4.18217 16.224 3.62738 15.5396 3.62738C14.8552 3.62738 14.3004 4.18217 14.3004 4.86655C14.3004 5.55092 14.8552 6.10572 15.5396 6.10572Z" fill="#0077C5"></path> </svg> 