<?xml version="1.0" encoding="UTF-8"?> <svg xmlns="http://www.w3.org/2000/svg" width="78" height="73" viewBox="0 0 78 73"> <g fill="none" fill-rule="evenodd"> <g> <g> <g> <g> <path fill="#F4877A" fill-rule="nonzero" d="M27.425 54.618S48.22 42.217 48.22 28.266c0-6.42-4.822-11.626-10.77-11.626-5.008 0-9.205 3.695-10.41 8.695-1.205-5-5.402-8.695-10.41-8.695-5.95 0-10.77 5.205-10.77 11.626 0 13.95 20.795 26.352 20.795 26.352" transform="translate(-183 -1647) translate(140 1622) translate(43 25)"></path> <path stroke="#FFF" stroke-width="2.08" d="M16.63 21.445c-3.289 0-5.964 3.06-5.964 6.82" transform="translate(-183 -1647) translate(140 1622) translate(43 25)"></path> <path fill="#D3E5EF" fill-rule="nonzero" d="M6.303 12.417l-3.64-3.64c-.61-.61-1.597-.61-2.206 0-.61.61-.61 1.597 0 2.206l3.64 3.64c.61.61 1.597.61 2.206 0 .61-.61.61-1.597 0-2.206zM29.12 7.8V1.56c0-.862-.698-1.56-1.56-1.56C26.698 0 26 .698 26 1.56V7.8c0 .862.698 1.56 1.56 1.56.862 0 1.56-.698 1.56-1.56zM17.58 9.332l-3.12-8.32C14.159.206 13.26-.203 12.453.1c-.806.303-1.215 1.202-.913 2.009l3.12 8.32c.303.806 1.202 1.215 2.009.913.806-.303 1.215-1.202.913-2.009zM51.023 14.623l3.64-3.64c.61-.61.61-1.597 0-2.206-.61-.61-1.597-.61-2.206 0l-3.64 3.64c-.61.61-.61 1.597 0 2.206.61.61 1.597.61 2.206 0zM40.448 9.94l3.12-7.8c.32-.8-.069-1.708-.869-2.028-.8-.32-1.707.069-2.027.869l-3.12 7.8c-.32.8.069 1.707.869 2.027.8.32 1.707-.069 2.027-.869z" transform="translate(-183 -1647) translate(140 1622) translate(43 25)"></path> </g> <g> <path fill="#FFF" fill-rule="nonzero" d="M27 0c1.654 0 3 1.346 3 3v42c0 1.654-1.346 3-3 3H3c-1.654 0-3-1.346-3-3V3c0-1.654 1.346-3 3-3h24z" transform="translate(-183 -1647) translate(140 1622) translate(43 25) rotate(-19 98.246 -88.003)"></path> <path fill="#D3E5EF" d="M4 39L26 39 26 9 4 9z" transform="translate(-183 -1647) translate(140 1622) translate(43 25) rotate(-19 98.246 -88.003)"></path> <g fill="#4F5661"> <path fill-rule="nonzero" d="M3 2c-.552 0-1 .448-1 1v42c0 .552.448 1 1 1h24c.552 0 1-.448 1-1V3c0-.552-.448-1-1-1H3zm24 46H3c-1.654 0-3-1.346-3-3V3c0-1.654 1.346-3 3-3h24c1.654 0 3 1.346 3 3v42c0 1.654-1.346 3-3 3z" transform="translate(-183 -1647) translate(140 1622) translate(43 25) rotate(-19 98.246 -88.003)"></path> <path d="M26 10H4c-.553 0-1-.447-1-1 0-.553.447-1 1-1h22c.553 0 1 .447 1 1 0 .553-.447 1-1 1M26 40H4c-.553 0-1-.447-1-1 0-.553.447-1 1-1h22c.553 0 1 .447 1 1 0 .553-.447 1-1 1M17 44h-4c-.553 0-1-.447-1-1 0-.553.447-1 1-1h4c.553 0 1 .447 1 1 0 .553-.447 1-1 1" transform="translate(-183 -1647) translate(140 1622) translate(43 25) rotate(-19 98.246 -88.003)"></path> <path fill-rule="nonzero" d="M15 4.5c-.275 0-.5.225-.5.5s.225.5.5.5.5-.225.5-.5-.225-.5-.5-.5m0 2c-.827 0-1.5-.673-1.5-1.5s.673-1.5 1.5-1.5 1.5.673 1.5 1.5-.673 1.5-1.5 1.5" transform="translate(-183 -1647) translate(140 1622) translate(43 25) rotate(-19 98.246 -88.003)"></path> </g> </g> </g> </g> </g> </g> </svg> 