<?xml version="1.0" encoding="UTF-8"?> <svg xmlns="http://www.w3.org/2000/svg" xmlns:xlink="http://www.w3.org/1999/xlink" width="691" height="490" viewBox="0 0 691 490"> <defs> <rect id="zzx5vvcipa" width="691" height="490" x="0" y="0" rx="4"></rect> </defs> <g fill="none" fill-rule="evenodd"> <g> <g> <g transform="translate(-640 -994) translate(109 890) translate(531 104)"> <use fill="#D1E4F1" xlink:href="#zzx5vvcipa"></use> <path fill="#C5DDEE" fill-rule="nonzero" d="M194.378 436C267.654 436 345 401.364 345 316.81c0-34.127-24.425-68.254-61.572-79.97v-2.037c30.023-8.659 54.957-32.598 54.957-73.347C338.385 85.56 259.512 55 195.396 55S60.04 81.487 36.124 159.928l112.457 23.94c3.562-20.375 19.846-31.071 36.638-31.071 13.23 0 28.496 5.093 28.496 20.883 0 20.375-16.792 25.978-42.744 25.978h-38.673v83.535H166.9c31.55 0 52.412 4.584 52.412 26.486 0 18.337-17.81 24.45-31.549 24.45-24.934 0-41.726-17.828-45.797-35.656L29 324.96C48.337 402.382 120.594 436 194.378 436z"></path> <circle cx="346" cy="245" r="148" fill="#FFF"></circle> <g> <path fill="#D3E5EF" d="M15.055 32.188l2.215 5.983c.223.592.693 1.06 1.285 1.285l5.98 2.213c1.146.433 1.72 1.716 1.286 2.859-.223.592-.69 1.06-1.285 1.285l-5.98 2.218c-.593.223-1.063.69-1.286 1.283l-2.215 5.98c-.434 1.145-1.714 1.722-2.859 1.288-.592-.226-1.06-.693-1.285-1.288l-2.215-5.98c-.224-.592-.691-1.06-1.283-1.283L1.43 45.813C.287 45.38-.29 44.1.144 42.954c.224-.59.691-1.06 1.286-1.285l5.983-2.213c.592-.226 1.06-.693 1.283-1.285l2.215-5.983c.436-1.143 1.713-1.72 2.859-1.286.592.226 1.06.691 1.285 1.286M134.042 173.43l2.215 5.983c.223.592.694 1.06 1.286 1.285l5.98 2.213c1.145.433 1.719 1.716 1.285 2.859-.223.592-.69 1.06-1.285 1.285l-5.98 2.218c-.592.223-1.063.69-1.286 1.282l-2.215 5.98c-.434 1.146-1.714 1.723-2.859 1.289-.592-.226-1.06-.693-1.285-1.288l-2.215-5.98c-.224-.593-.691-1.06-1.283-1.283l-5.983-2.218c-1.143-.434-1.72-1.714-1.286-2.859.224-.59.691-1.06 1.286-1.285l5.983-2.213c.592-.226 1.06-.693 1.283-1.285l2.215-5.983c.436-1.143 1.714-1.72 2.859-1.286.592.226 1.06.691 1.285 1.286M153.41 74.269l2.658 7.18c.27.709.831 1.27 1.543 1.54l7.177 2.659c1.374.52 2.065 2.057 1.543 3.428-.27.711-.831 1.272-1.543 1.542l-7.177 2.66c-.712.27-1.273.83-1.543 1.542l-2.659 7.177c-.52 1.374-2.057 2.065-3.428 1.543-.711-.27-1.275-.831-1.542-1.543l-2.66-7.177c-.27-.712-.83-1.273-1.542-1.543l-7.177-2.659c-1.374-.52-2.065-2.054-1.543-3.428.27-.711.831-1.275 1.543-1.542l7.177-2.66c.712-.27 1.273-.83 1.543-1.54l2.659-7.18c.52-1.37 2.054-2.064 3.428-1.542.711.27 1.272.831 1.542 1.543M66.536 1.289l1.994 5.383c.203.532.623.953 1.156 1.158l5.385 1.992c1.029.392 1.545 1.542 1.156 2.57-.203.533-.623.956-1.156 1.159l-5.385 1.994c-.533.2-.953.62-1.156 1.158l-1.994 5.383c-.39 1.029-1.543 1.545-2.571 1.156-.535-.203-.956-.623-1.158-1.156l-1.995-5.383c-.2-.537-.62-.958-1.155-1.158l-5.383-1.994c-1.031-.392-1.548-1.543-1.156-2.574.2-.532.62-.953 1.156-1.155l5.383-1.992c.535-.205.956-.626 1.155-1.158l1.995-5.383C63.199.26 64.349-.261 65.38.13c.533.203.953.624 1.156 1.159M106.263 23.882l1.366 3.685c.138.365.426.653.79.793l3.688 1.364c.704.268 1.058 1.056.791 1.76-.138.364-.426.654-.79.793l-3.688 1.365c-.365.137-.653.425-.791.793l-1.366 3.685c-.267.704-1.056 1.058-1.76.791-.366-.139-.654-.427-.793-.79l-1.365-3.686c-.137-.368-.425-.656-.791-.793l-3.686-1.365c-.706-.269-1.06-1.056-.791-1.762.137-.365.425-.653.791-.791l3.686-1.364c.366-.14.654-.428.79-.793l1.366-3.685c.269-.704 1.056-1.061 1.762-.793.364.139.652.427.791.793M25.263 154.882l1.366 3.685c.138.365.426.653.79.793l3.688 1.364c.704.268 1.058 1.056.791 1.76-.138.364-.426.654-.79.793l-3.688 1.365c-.365.137-.653.425-.791.793l-1.366 3.685c-.267.704-1.056 1.058-1.76.791-.366-.139-.654-.427-.793-.79l-1.365-3.686c-.137-.368-.425-.656-.791-.793l-3.686-1.365c-.706-.269-1.06-1.056-.791-1.762.137-.365.425-.653.791-.791l3.686-1.364c.366-.14.654-.428.79-.793l1.366-3.685c.269-.704 1.056-1.061 1.762-.793.364.139.652.427.791.793M106.263 162.882l1.366 3.685c.138.365.426.653.79.793l3.688 1.364c.704.268 1.058 1.056.791 1.76-.138.364-.426.654-.79.793l-3.688 1.365c-.365.137-.653.425-.791.793l-1.366 3.685c-.267.704-1.056 1.058-1.76.791-.366-.139-.654-.427-.793-.79l-1.365-3.686c-.137-.368-.425-.656-.791-.793l-3.686-1.365c-.706-.269-1.06-1.056-.791-1.762.137-.365.425-.653.791-.791l3.686-1.364c.366-.14.654-.428.79-.793l1.366-3.685c.269-.704 1.056-1.061 1.762-.793.364.139.652.427.791.793" transform="translate(268.013 150)"></path> <g> <path fill="#FFF" d="M0 54C0 24.19 24.188 0 54 0s54 24.189 54 54c0 .699-.022 1.395-.044 2.093v.114C106.786 85.005 83.07 108 54 108 24.93 108 1.214 85.005.044 56.207L0 54z" transform="translate(268.013 150) translate(23.987 46)"></path> <path fill="#CFE6F0" d="M.765 49.5C5.04 75.04 27.269 94.5 54 94.5c26.73 0 48.96-19.461 53.234-45 .382 2.16.608 4.365.72 6.593v.114C106.785 85.005 83.07 108 54 108S1.215 85.005.045 56.207" transform="translate(268.013 150) translate(23.987 46)"></path> <path stroke="#4F5661" stroke-width="4" d="M0 54C0 24.19 24.188 0 54 0s54 24.189 54 54c0 .699-.022 1.395-.044 2.093v.114C106.786 85.005 83.07 108 54 108 24.93 108 1.214 85.005.044 56.207L0 54z" transform="translate(268.013 150) translate(23.987 46)"></path> <path stroke="#4F5661" stroke-linecap="round" stroke-width="4" d="M25.07 28.178c.805-2.49 2.545-4.626 5.027-5.812 2.856-1.366 6.072-1.178 8.764.224M82.805 28.176c-.804-2.496-2.542-4.634-5.024-5.82-2.856-1.368-6.074-1.176-8.768.232" transform="translate(268.013 150) translate(23.987 46)"></path> <path fill="#53C27C" d="M42 41c0 3.867-2.686 7-6 7s-6-3.133-6-7 2.686-7 6-7 6 3.133 6 7M78 41c0 3.867-2.686 7-6 7s-6-3.133-6-7 2.686-7 6-7 6 3.133 6 7" transform="translate(268.013 150) translate(23.987 46)"></path> <path stroke="#4F5661" stroke-linecap="round" stroke-width="4" d="M37.84 60C41.12 65.98 47.12 70 54 70c6.88 0 12.88-4.021 16.16-10" transform="translate(268.013 150) translate(23.987 46)"></path> </g> </g> </g> </g> </g> </g> </svg> 