<?xml version="1.0" encoding="UTF-8"?> <svg xmlns="http://www.w3.org/2000/svg" width="112" height="21" viewBox="0 0 112 21" fill="none"> <path fill-rule="evenodd" clip-rule="evenodd" d="M10.2162 20.4324C15.859 20.4324 20.4324 15.8584 20.4324 10.2162C20.4324 4.57403 15.859 0 10.2162 0C4.57346 0 0 4.57403 0 10.2162C0 15.8584 4.57346 20.4324 10.2162 20.4324Z" fill="#157D40"></path> <path fill-rule="evenodd" clip-rule="evenodd" d="M14.4892 11.1834C15.3622 10.1612 16.1431 8.9426 16.6976 7.44819L15.4422 6.97087C14.651 9.1333 13.4597 10.5988 12.0215 11.8014V4.3873H10.6746V15.0082H12.0215V13.4411C12.5436 13.0592 13.0073 12.6602 13.5136 12.1828L14.748 14.3453C15.0551 14.8788 15.4694 15.1654 16.0835 15.1654C16.4337 15.1654 16.6278 15.0474 16.709 15.0082L14.4892 11.1834ZM5.06591 11.2452C5.06591 9.49824 5.93883 8.58843 7.27545 8.58843C8.28232 8.58843 8.93956 8.98176 9.15524 9.12195C9.3221 8.96473 9.45207 8.673 9.45207 8.37503C9.45207 7.87557 8.88621 7.34149 7.22096 7.34149C5.28159 7.34149 3.65494 8.69514 3.65494 11.2674C3.65494 13.7726 5.12551 15.1711 7.06545 15.1711C8.2284 15.1711 9.16034 14.7891 9.43051 14.6376V13.2391C9.13367 13.4525 8.17505 13.9128 7.29078 13.9128C6.01999 13.9128 5.06591 13.0143 5.06591 11.2452Z" fill="#FFFFFE"></path> <path fill-rule="evenodd" clip-rule="evenodd" d="M59.2281 6.69046V15.2011C59.2281 16.8851 60.2747 17.783 61.8259 17.783C62.5643 17.783 63.2227 17.5968 63.372 17.5441V16.1308C63.2335 16.1677 62.7874 16.3056 62.1869 16.3056C61.2731 16.3056 60.8644 15.7426 60.8644 14.994V10.1753H63.1376V8.80465H60.8644V7.90676C60.8644 7.04633 60.3542 6.611 59.6902 6.611C59.5415 6.60022 59.3769 6.62689 59.2281 6.69046ZM92.2208 9.95795V9.92049C92.2208 9.06006 91.7554 8.62416 91.1084 8.62416C90.9609 8.62416 90.7963 8.65084 90.6373 8.7093V17.5968H92.2719V11.5199C92.76 10.8558 93.7419 10.0851 94.6217 10.0851C95.5809 10.0851 96.0519 10.7066 96.0519 11.6101V17.5968H97.6922V11.5199C98.2541 10.7599 99.1622 10.0851 100.036 10.0851C101.001 10.0851 101.472 10.7066 101.472 11.6101V17.5968H103.107V11.5199C103.107 9.86203 102.358 8.62416 100.337 8.62416C99.0998 8.62416 98.1917 9.28822 97.4482 10.0959C97.2041 9.51127 96.6365 8.62416 94.9168 8.62416C93.7249 8.62416 92.8849 9.24622 92.2208 9.95795ZM86.4941 9.92049C86.4941 9.06006 86.0003 8.62416 85.3533 8.62416C85.2057 8.62416 85.0411 8.65084 84.8822 8.7093V17.5968H86.5168V12.4064C86.9822 11.3071 88.089 10.2871 89.5419 10.2871V8.62984C87.9811 8.62984 87.09 9.37846 86.4941 10.5V9.92049ZM34.3023 9.92049C34.3023 9.06006 33.8136 8.62416 33.1654 8.62416C33.0167 8.62416 32.8522 8.65084 32.6927 8.7093V17.5968H34.329V12.4064C34.791 11.3071 35.9011 10.2871 37.3518 10.2871V8.62984C35.7899 8.62984 34.9022 9.37846 34.308 10.5V9.92049H34.3023ZM72.3617 13.1187C73.423 11.9183 74.3709 10.5 75.0463 8.75187L73.5195 8.18827C72.5546 10.7225 71.113 12.4331 69.3649 13.8407V5.16598H67.7303V17.5968H69.3649V15.7642C70.0006 15.3124 70.5625 14.8504 71.1755 14.2925L72.6738 16.8267C73.0484 17.4481 73.5479 17.7875 74.2971 17.7875C74.7171 17.7875 74.9611 17.6496 75.0519 17.6019L72.3617 13.1187ZM25.9619 13.1931C25.9619 11.1476 27.0249 10.0851 28.6448 10.0851C29.8662 10.0851 30.6687 10.5477 30.9287 10.7066C31.1307 10.521 31.2902 10.1804 31.2902 9.83535C31.2902 9.25076 30.6052 8.62416 28.5812 8.62416C26.2218 8.62416 24.2518 10.2071 24.2518 13.2198C24.2518 16.1518 26.0362 17.7875 28.395 17.7875C29.8083 17.7875 30.9394 17.3369 31.2635 17.1666V15.5247C30.9026 15.7749 29.739 16.3113 28.6658 16.3113C27.1254 16.3113 25.9619 15.2647 25.9619 13.1931ZM51.9395 10.5687C51.738 10.4466 51.0257 10.0794 50.1176 10.0794C48.6084 10.0794 47.5567 11.126 47.5567 13.2992C47.5567 15.2329 48.5289 16.3056 50.6164 16.3056C51.1051 16.3056 51.5512 16.2313 51.9395 16.12V10.5687ZM53.5599 17.3369C53.225 17.4215 52.1631 17.7875 50.6113 17.7875C47.2275 17.7875 45.921 15.9021 45.921 13.3679C45.921 10.1594 47.7423 8.62416 49.8037 8.62416C50.9513 8.62416 51.7113 8.98571 51.9236 9.08616V5.16598H53.544V17.3369H53.5599ZM39.147 12.6403C39.222 11.3439 40.0608 10.0215 41.8674 10.0215C42.6802 10.0215 43.1632 10.4835 43.1632 11.0471C43.1632 12.3054 40.8793 12.6403 39.147 12.6403ZM39.1578 13.915C41.6069 13.915 44.8261 13.5433 44.8261 10.9671C44.8261 9.68098 43.7529 8.61906 41.9417 8.61906C38.8973 8.61906 37.4364 10.7548 37.4364 13.3367C37.4364 15.8062 39.0358 17.7773 41.8776 17.7773C43.4611 17.7773 44.6507 17.3414 44.6507 16.4441C44.6507 16.019 44.3749 15.6841 44.3159 15.6314C44.1513 15.7318 43.3067 16.317 41.9843 16.317C40.1193 16.3113 39.344 15.1154 39.1578 13.915ZM55.5571 17.5963H57.2036V8.81033H55.5571V17.5963ZM56.3966 7.03611C55.8227 7.03611 55.35 6.57354 55.35 5.99973C55.35 5.42649 55.8227 4.9537 56.3966 4.9537C56.9704 4.9537 57.4324 5.42649 57.4324 5.99973C57.4165 6.57354 56.9704 7.03611 56.3966 7.03611ZM109.991 15.1745C109.254 15.9339 108.504 16.3113 107.545 16.3113C106.62 16.3113 106.121 15.7108 106.121 15.0899C106.121 14.192 106.841 13.432 109.98 13.1289V15.1745H109.991ZM108.079 8.62416C105.984 8.62416 105.173 9.18719 105.173 9.83535C105.173 10.324 105.462 10.6322 105.536 10.7066C105.814 10.5312 106.597 10.0851 107.846 10.0851C109.43 10.0851 109.991 10.8343 109.991 11.647V11.886C106.325 12.2742 104.452 12.9592 104.452 15.1586C104.452 16.6564 105.576 17.7773 107.154 17.7773C108.737 17.7773 109.64 16.9544 110.037 16.5928V17.6019H111.637V11.5835C111.632 9.6333 110.218 8.62416 108.079 8.62416ZM81.21 15.1745C80.4722 15.9339 79.723 16.3113 78.7638 16.3113C77.8387 16.3113 77.3392 15.7108 77.3392 15.0899C77.3392 14.192 78.06 13.432 81.193 13.1289V15.1745H81.21ZM79.2973 8.62416C77.1973 8.62416 76.3914 9.18719 76.3914 9.83535C76.3914 10.324 76.6809 10.6322 76.7546 10.7066C77.0327 10.5312 77.816 10.0851 79.0646 10.0851C80.6482 10.0851 81.21 10.8343 81.21 11.647V11.886C77.5379 12.2742 75.6706 12.9592 75.6706 15.1586C75.6706 16.6564 76.7887 17.7773 78.3665 17.7773C79.95 17.7773 80.8525 16.9544 81.2555 16.5928V17.6019H82.8503V11.5835C82.856 9.6333 81.4427 8.62416 79.2973 8.62416Z" fill="#0A0B09"></path> </svg> 