<?xml version="1.0" encoding="UTF-8"?> <svg xmlns="http://www.w3.org/2000/svg" xmlns:xlink="http://www.w3.org/1999/xlink" width="691" height="490" viewBox="0 0 691 490"> <defs> <rect id="ngfciuploa" width="691" height="490" x="0" y="0" rx="4"></rect> </defs> <g fill="none" fill-rule="evenodd"> <g> <g> <g transform="translate(-640 -995) translate(109 891) translate(531 104)"> <mask id="bulhs2h4ub" fill="#fff"> <use xlink:href="#ngfciuploa"></use> </mask> <use fill="#D1E4F1" xlink:href="#ngfciuploa"></use> <path fill="#A4CBE5" fill-rule="nonzero" d="M296 443L296 50 174.089 50 35 138.814 97.064 235.398 163.006 189.881 163.006 443z" mask="url(#bulhs2h4ub)" opacity=".257"></path> <circle cx="346" cy="245" r="148" fill="#FFF" mask="url(#bulhs2h4ub)"></circle> <g mask="url(#bulhs2h4ub)"> <g> <g> <path fill="#00A6A4" d="M57.294 64.3L79.882 64.3 79.882 35.8 57.294 35.8zM57.294 124.15L79.882 124.15 79.882 64.3 57.294 64.3z" transform="translate(273 150) translate(2 38)"></path> <g fill="#4F5661" fill-rule="nonzero"> <path d="M130.706 61.45V41.5c0-1.561-1.277-2.85-2.824-2.85H9.294c-1.546 0-2.823 1.289-2.823 2.85v19.95h124.235zm5.647-19.95v22.8c0 1.574-1.264 2.85-2.824 2.85H3.647c-1.56 0-2.823-1.276-2.823-2.85V41.5c0-4.709 3.805-8.55 8.47-8.55h118.588c4.666 0 8.47 3.841 8.47 8.55zM125.059 72.85v45.6c0 1.561-1.277 2.85-2.824 2.85H14.941c-1.558 0-2.823-1.278-2.823-2.85v-45.6c0-1.574-1.264-2.85-2.824-2.85-1.56 0-2.823 1.276-2.823 2.85v45.6c0 4.72 3.794 8.55 8.47 8.55h107.294c4.666 0 8.47-3.841 8.47-8.55v-45.6c0-1.574-1.263-2.85-2.823-2.85-1.559 0-2.823 1.276-2.823 2.85z" transform="translate(273 150) translate(2 38)"></path> <path d="M65.16 32.95c-17.38 0-32.28-5.703-42.632-15.59-1.133-1.082-2.92-1.033-3.992.11-1.072 1.144-1.022 2.948.11 4.03C30.074 32.413 46.368 38.65 65.16 38.65c1.56 0 2.824-1.276 2.824-2.85s-1.264-2.85-2.824-2.85z" transform="translate(273 150) translate(2 38)"></path> <path d="M71.412 33.754c0 1.685-1.44 3.002-3.1 2.837-10.514-1.046-20.348-5.716-26.022-12.086-6.278-7.048-6.512-15.266.56-20.839 7.291-5.745 15.074-4.35 20.713 2.813 4.926 6.256 7.849 16.415 7.849 27.275zm-12.27-23.728c-3.795-4.82-8.09-5.59-12.816-1.867-4.227 3.33-4.101 7.748.163 12.535 4.14 4.647 11.262 8.344 19.176 9.776-.507-8.368-2.93-15.882-6.523-20.444z" transform="translate(273 150) translate(2 38)"></path> <path d="M72.017 38.65c18.792 0 35.086-6.237 46.513-17.15 1.133-1.082 1.182-2.886.11-4.03-1.071-1.143-2.859-1.192-3.991-.11-10.353 9.887-25.252 15.59-42.632 15.59-1.56 0-2.823 1.276-2.823 2.85s1.264 2.85 2.823 2.85z" transform="translate(273 150) translate(2 38)"></path> <path d="M90.997 20.855c4.35-4.737 4.421-9.123-.139-12.69-4.403-3.445-8.715-2.617-12.586 2.134-3.705 4.548-6.22 11.94-6.754 20.176 8.023-1.422 15.296-5.065 19.479-9.62zm-25.232 12.9c0-10.77 3.057-20.831 8.146-27.077C79.612-.32 87.336-1.802 94.318 3.66c7.403 5.79 7.27 14.049.82 21.07-5.723 6.232-15.702 10.81-26.273 11.86-1.66.166-3.1-1.151-3.1-2.836z" transform="translate(273 150) translate(2 38)"></path> </g> </g> <path fill="#CFE6F0" d="M15.038 14.853l2.212 6c.223.591.693 1.063 1.284 1.29l5.973 2.218c1.144.435 1.718 1.722 1.284 2.868-.223.594-.69 1.062-1.284 1.289l-5.973 2.222c-.591.226-1.06.695-1.284 1.289l-2.212 5.998c-.433 1.148-1.712 1.726-2.856 1.292-.591-.227-1.058-.696-1.284-1.292l-2.21-5.998c-.225-.594-.695-1.063-1.283-1.29l-5.976-2.221C.288 28.083-.288 26.799.145 25.651c.226-.594.69-1.063 1.284-1.29l5.976-2.219c.588-.226 1.058-.698 1.284-1.289l2.21-6c.433-1.146 1.711-1.725 2.855-1.29.591.227 1.058.693 1.284 1.29M141.573 25.162l2.656 7.199c.27.713.83 1.276 1.54 1.544l7.17 2.67c1.371.52 2.061 2.06 1.543 3.437-.273.714-.833 1.277-1.544 1.547l-7.169 2.667c-.71.271-1.27.834-1.54 1.547l-2.656 7.199c-.519 1.378-2.052 2.07-3.424 1.547-.71-.27-1.273-.833-1.54-1.547l-2.656-7.199c-.27-.713-.83-1.276-1.541-1.547l-7.17-2.667c-1.371-.52-2.061-2.06-1.542-3.437.272-.714.832-1.28 1.543-1.547l7.169-2.67c.71-.268 1.27-.83 1.54-1.544l2.656-7.199c.52-1.378 2.052-2.07 3.424-1.55.71.274 1.271.836 1.54 1.55M93.375 1.292l1.992 5.4c.203.533.623.955 1.155 1.161l5.376 1.998c1.03.393 1.549 1.547 1.157 2.578-.202.534-.622.958-1.157 1.162l-5.376 1.997c-.532.203-.952.625-1.155 1.162l-1.992 5.399c-.389 1.031-1.54 1.552-2.567 1.161-.532-.203-.952-.625-1.157-1.161l-1.99-5.4c-.202-.536-.622-.958-1.154-1.16l-5.379-1.998c-1.027-.394-1.546-1.548-1.157-2.581.203-.534.623-.956 1.157-1.16l5.38-1.997c.531-.206.951-.628 1.154-1.162l1.989-5.399c.392-1.03 1.54-1.554 2.57-1.161.532.203.952.625 1.154 1.161" transform="translate(273 150)"></path> </g> </g> </g> </g> </g> </g> </svg> 