<?xml version="1.0" encoding="UTF-8"?> <svg xmlns="http://www.w3.org/2000/svg" width="101" height="21" viewBox="0 0 101 21" fill="none"> <path fill-rule="evenodd" clip-rule="evenodd" d="M99.9578 17.1442C100.439 17.1442 100.829 16.7496 100.829 16.2737C100.829 15.7928 100.439 15.4029 99.9578 15.4029C99.4774 15.4029 99.0872 15.7928 99.0872 16.2737C99.0872 16.7496 99.4774 17.1442 99.9578 17.1442ZM99.9578 15.2441C100.529 15.2441 100.992 15.7021 100.992 16.2737C100.992 16.845 100.529 17.2941 99.9578 17.2941C99.3865 17.2941 98.9242 16.845 98.9242 16.2737C98.9242 15.7021 99.3865 15.2441 99.9578 15.2441ZM99.7631 16.1966H99.931C100.049 16.1966 100.185 16.1647 100.185 16.024C100.185 15.8971 100.062 15.8654 99.9533 15.8654H99.7631V16.1966ZM100.393 16.0287C100.393 16.1966 100.289 16.3052 100.126 16.3416L100.439 16.8497H100.185L99.9127 16.3643H99.7631V16.8497H99.5542V15.6885H99.9625C100.18 15.6885 100.393 15.7794 100.393 16.0287Z" fill="black"></path> <path fill-rule="evenodd" clip-rule="evenodd" d="M75.0244 5.7762H72.5763V8.29055H71.057V10.2767H72.5763V14.2361C72.5763 15.6237 72.9145 17.4897 75.5845 17.4897C76.106 17.4897 76.7646 17.3838 77.1563 17.2346L77.0958 15.2907C76.8472 15.3731 76.4651 15.4758 76.0073 15.4758C75.2819 15.4758 75.0244 14.9664 75.0244 14.218V10.2767H77.195V8.29055H75.0244V5.7762ZM94.095 12.5175L97.3261 8.29055H94.4323L92.579 10.8715L90.7776 8.29055H87.7728L91.0232 12.5179L87.3759 17.2871H90.3421L92.5406 14.2336L94.7217 17.2871H97.7616L94.095 12.5175ZM65.4199 15.4182C63.8 15.4182 63.0619 14.0364 63.0619 12.7526C63.0619 11.4863 63.8 10.1235 65.4199 10.1235C67.04 10.1235 67.7779 11.4863 67.7779 12.7526C67.7779 14.0364 67.04 15.4182 65.4199 15.4182ZM65.4199 8.03751C62.5933 8.03751 60.5417 10.0205 60.5417 12.7526C60.5417 15.5801 62.6389 17.5645 65.4199 17.5645C68.2007 17.5645 70.2981 15.5613 70.2981 12.7526C70.2981 10.0205 68.2465 8.03751 65.4199 8.03751ZM84.3798 13.4765C84.3798 14.81 83.6258 15.6467 82.2572 15.6467C81.748 15.6467 80.839 15.4935 80.839 14.6852C80.839 13.8168 81.9258 13.282 84.0479 13.282H84.3798V13.4765ZM82.7273 8.03751C81.2984 8.03751 79.8456 8.61439 78.8732 9.51467L80.1473 10.9407C80.7331 10.3553 81.7384 9.9848 82.5464 9.9848C83.4326 9.9848 84.3358 10.4281 84.3358 11.4863V11.644C81.7259 11.6574 78.41 11.9716 78.41 14.6521C78.41 16.6222 80.1241 17.5042 81.8228 17.5042C82.8848 17.5042 83.8007 16.9 84.3606 16.2448H84.416V17.2871H86.755V11.8481C86.755 10.425 86.2319 8.03751 82.7273 8.03751ZM45.1441 9.6786H45.1074V8.29055H42.7137V17.2871H45.1979V12.4811C45.1979 12.4594 45.3084 10.2839 47.4603 10.2839C47.6385 10.2839 47.9465 10.3098 48.232 10.3812V8.11188C48.0578 8.06833 47.67 8.03751 47.5195 8.03751C46.5424 8.03751 45.7078 8.83863 45.1441 9.6786ZM28.1915 5.7762H25.7437V8.29055H24.2244V10.2767H25.7437V14.2361C25.7437 15.6237 26.0817 17.4897 28.7517 17.4897C29.2732 17.4897 29.932 17.3838 30.3238 17.2346L30.2632 15.2907C30.0146 15.3731 29.6325 15.4758 29.1747 15.4758C28.4493 15.4758 28.1915 14.9664 28.1915 14.218V10.2767H30.3622V8.29055H28.1915V5.7762ZM38.1201 13.223C38.1201 14.2801 37.4311 15.4182 36.1466 15.4182C35.1564 15.4182 34.6277 14.712 34.6277 13.2594V8.29055H32.1435V13.8742C32.1435 15.732 33.0706 17.5404 35.5497 17.5404C36.7188 17.5404 37.698 16.6202 38.1915 15.941H38.2286V17.2871H40.6043V8.29055H38.1201V13.223ZM54.4519 15.4182C52.9533 15.4182 52.0577 14.0813 52.0577 12.7888C52.0577 11.5071 52.9732 10.1235 54.4519 10.1235C56.0595 10.1235 56.8591 11.4863 56.8591 12.7526C56.8591 14.0773 55.9881 15.4182 54.4519 15.4182ZM54.9402 8.03751C53.804 8.03751 52.967 8.53399 52.1766 9.27481H52.1301V3.3331H49.6461V17.2871H52.0218V16.0156H52.0591C52.619 16.9342 53.7319 17.5404 54.8861 17.5404C57.4505 17.5404 59.3944 15.527 59.3944 12.7526C59.3944 10.0205 57.4733 8.03751 54.9402 8.03751Z" fill="black"></path> <path fill-rule="evenodd" clip-rule="evenodd" d="M0.625244 10.7985C0.625244 5.27866 5.10006 0.804291 10.6194 0.804291C16.1393 0.804291 20.6136 5.27866 20.6136 10.7985C20.6136 16.3179 16.1393 20.7924 10.6194 20.7924C5.10006 20.7924 0.625244 16.3179 0.625244 10.7985Z" fill="#D52B1E"></path> <path fill-rule="evenodd" clip-rule="evenodd" d="M8.38847 14.4631C7.24118 13.6349 6.13744 12.7503 5.08015 11.8138C4.69222 12.6661 4.34336 13.5396 4.03314 14.4313C5.7189 15.8621 7.97217 17.4998 9.51946 18.4217C11.5257 13.2293 14.6536 9.84241 17.649 7.47859C17.264 6.66474 16.7429 5.92839 16.1138 5.29947C12.9218 7.75061 10.2741 10.8758 8.38847 14.4631Z" fill="white"></path> </svg> 