<?xml version="1.0" encoding="UTF-8"?> <svg xmlns="http://www.w3.org/2000/svg" width="124" height="22" viewBox="0 0 124 22" fill="none"> <path fill-rule="evenodd" clip-rule="evenodd" d="M122.37 17.1541C121.886 17.1541 121.493 16.7567 121.493 16.277C121.493 15.7928 121.886 15.4 122.37 15.4C122.854 15.4 123.247 15.7928 123.247 16.277C123.247 16.7567 122.854 17.1541 122.37 17.1541ZM122.37 15.2403C121.794 15.2403 121.328 15.7015 121.328 16.277C121.328 16.8525 121.794 17.305 122.37 17.305C122.945 17.305 123.411 16.8525 123.411 16.277C123.411 15.7015 122.945 15.2403 122.37 15.2403ZM122.173 16.1995V15.8658H122.365C122.475 15.8658 122.598 15.898 122.598 16.0257C122.598 16.1673 122.461 16.1995 122.342 16.1995H122.173ZM122.808 16.0304C122.808 15.7792 122.594 15.6878 122.374 15.6878H121.963V16.8572H122.173V16.3683H122.324L122.598 16.8572H122.854L122.539 16.3456C122.703 16.3089 122.808 16.1995 122.808 16.0304Z" fill="black"></path> <path fill-rule="evenodd" clip-rule="evenodd" d="M96.8268 15.4153C95.1948 15.4153 94.4513 14.0237 94.4513 12.7306C94.4513 11.4551 95.1948 10.082 96.8268 10.082C98.4587 10.082 99.2017 11.4551 99.2017 12.7306C99.2017 14.0237 98.4587 15.4153 96.8268 15.4153ZM96.8267 7.9806C93.9794 7.9806 91.9128 9.97814 91.9128 12.7306C91.9128 15.5784 94.0252 17.5777 96.8267 17.5777C99.6279 17.5777 101.74 15.5596 101.74 12.7306C101.74 9.97814 99.6739 7.9806 96.8267 7.9806ZM69.0032 8.23565H65.7759L62.5449 11.996H62.4893V3.24179H59.987V17.2981H62.4893V12.8282H62.5451L65.897 17.2981H69.1901L65.2942 12.3455L69.0032 8.23565ZM74.7857 15.4153C73.2759 15.4153 72.374 14.0688 72.374 12.767C72.374 11.4754 73.296 10.082 74.7857 10.082C76.4049 10.082 77.2102 11.4551 77.2102 12.7306C77.2102 14.0646 76.3327 15.4153 74.7857 15.4153ZM75.2774 7.9806C74.1331 7.9806 73.2897 8.48087 72.4938 9.22705H72.4468V3.24179H69.9448V17.2981H72.3376V16.017H72.3752C72.9393 16.9425 74.06 17.5531 75.223 17.5531C77.8061 17.5531 79.7643 15.525 79.7643 12.7306C79.7643 9.97814 77.8289 7.9806 75.2774 7.9806ZM112.385 8.23565H109.158L105.927 11.996H105.871V3.24179H103.369V17.2981H105.871V12.8282H105.927L109.279 17.2981H112.572L108.676 12.3455L112.385 8.23565ZM117.116 11.7202C115.828 11.4129 115.374 11.2476 115.374 10.7259C115.374 10.0067 116.285 9.84905 116.698 9.84905C117.474 9.84905 118.351 10.3127 118.681 10.7529L120.157 9.33716C119.475 8.47998 118.133 7.9806 116.716 7.9806C114.905 7.9806 113.004 8.89137 113.004 10.9262C113.004 12.6738 114.373 13.2009 115.713 13.5219C117.125 13.8508 117.629 14.0914 117.629 14.6602C117.629 15.4991 116.678 15.6358 116.35 15.6358C115.532 15.6358 114.583 15.1674 114.071 14.5599L112.552 16.0996C113.382 17.0202 114.802 17.5739 116.259 17.5739C118.705 17.5739 120.157 16.4076 120.157 14.4833C120.157 12.6421 118.38 12.0233 117.116 11.7202ZM85.8307 15.4153C84.1987 15.4153 83.4552 14.0237 83.4552 12.7306C83.4552 11.4551 84.1987 10.082 85.8307 10.082C87.4624 10.082 88.2054 11.4551 88.2054 12.7306C88.2054 14.0237 87.4624 15.4153 85.8307 15.4153ZM85.8307 7.9806C82.9831 7.9806 80.9168 9.97814 80.9168 12.7306C80.9168 15.5784 83.0291 17.5777 85.8307 17.5777C88.6318 17.5777 90.7443 15.5596 90.7443 12.7306C90.7443 9.97814 88.6778 7.9806 85.8307 7.9806ZM28.8303 15.4153C27.283 15.4153 26.4033 14.0646 26.4033 12.7306C26.4033 11.4551 27.2111 10.082 28.8303 10.082C30.32 10.082 31.2417 11.4754 31.2417 12.767C31.2417 14.0688 30.3399 15.4153 28.8303 15.4153ZM31.2603 9.38629H31.2046C30.8513 8.99522 29.8934 7.9806 28.3383 7.9806C25.7869 7.9806 23.8206 9.97814 23.8206 12.7306C23.8206 15.525 25.635 17.5531 28.2184 17.5531C29.3914 17.5531 30.4929 16.9316 31.1318 16.2086H31.1689V21.7606H33.6712V8.23565H31.2603V9.38629ZM41.7949 13.2043C41.7949 14.2691 41.1006 15.4153 39.807 15.4153C38.8098 15.4153 38.2771 14.704 38.2771 13.2409V8.23565H35.7746V13.8602C35.7746 15.7316 36.7084 17.5531 39.2058 17.5531C40.3832 17.5531 41.3697 16.6263 41.8668 15.9417H41.9044V17.2981H44.2972V8.23565H41.7949V13.2043ZM46.3452 17.2981H48.8477V8.23565H46.3452V17.2981ZM55.3652 15.4153C53.8418 15.4153 53.0738 14.0541 53.0738 12.7379C53.0738 11.4218 53.907 10.1184 55.2922 10.1184C55.941 10.1184 56.7609 10.4436 57.0827 10.9012L58.6957 9.29427C57.9149 8.47172 56.6704 7.9806 55.2922 7.9806C52.4873 7.9806 50.4513 9.99355 50.4513 12.767C50.4513 15.5851 52.4645 17.5531 55.3469 17.5531C56.7187 17.5531 57.9861 17.1516 58.7374 16.3437L57.1689 14.6602C56.8067 15.1015 56.0469 15.4153 55.3652 15.4153Z" fill="black"></path> <path fill-rule="evenodd" clip-rule="evenodd" d="M0.22113 10.8172C0.22113 5.28715 4.70421 0.804291 10.2343 0.804291C15.7644 0.804291 20.2473 5.28715 20.2473 10.8172C20.2473 16.3473 15.7644 20.8304 10.2343 20.8304C4.70421 20.8304 0.22113 16.3473 0.22113 10.8172Z" fill="#2CA01C"></path> <path fill-rule="evenodd" clip-rule="evenodd" d="M13.5728 6.92363H13.0167V8.36997H13.5728C14.9225 8.36997 16.0206 9.4679 16.0206 10.8178C16.0206 12.1674 14.9225 13.2653 13.5728 13.2653H12.2361V5.69995C12.2361 4.90107 11.5885 4.25339 10.7898 4.25339V14.7115H13.5728C15.7236 14.7115 17.467 12.9681 17.467 10.8178C17.467 8.66701 15.7236 6.92363 13.5728 6.92363ZM3.00153 10.8171C3.00153 12.9676 4.74513 14.7108 6.89566 14.7108H7.45178V13.2647H6.89566C5.54603 13.2647 4.44809 12.1667 4.44809 10.8171C4.44809 9.46746 5.54603 8.3693 6.89566 8.3693H8.23235V15.9349C8.23235 16.7336 8.87981 17.381 9.67846 17.381V6.92318H6.89566C4.74513 6.92318 3.00153 8.66656 3.00153 10.8171Z" fill="white"></path> </svg> 