<?xml version="1.0" encoding="UTF-8"?> <svg xmlns="http://www.w3.org/2000/svg" width="21" height="20" viewBox="0 0 21 20" fill="none"> <path d="M14.3439 5.82297C10.5806 2.06799 5.5734 0 0.244644 0V3.91214C4.52612 3.91214 8.54876 5.57316 11.5715 8.58928C14.5942 11.6054 16.259 15.6192 16.259 19.8912H20.1798C20.1797 14.5742 18.1071 9.57795 14.3439 5.82297Z" fill="#0077C5"></path> <path d="M0.204041 6.62021V10.5323C5.37589 10.5323 9.58358 14.7307 9.58358 19.8913H13.5043C13.5043 12.5736 7.5379 6.62021 0.204041 6.62021Z" fill="#0077C5"></path> <path d="M2.98792 20C4.53883 20 5.79609 18.7455 5.79609 17.198C5.79609 15.6505 4.53883 14.396 2.98792 14.396C1.43701 14.396 0.179749 15.6505 0.179749 17.198C0.179749 18.7455 1.43701 20 2.98792 20Z" fill="#0077C5"></path> </svg> 