<?xml version="1.0" encoding="UTF-8"?> <svg xmlns="http://www.w3.org/2000/svg" width="29" height="20" viewBox="0 0 29 20" fill="none"> <mask id="mask0_4847_80321" style="mask-type:alpha" maskUnits="userSpaceOnUse" x="0" y="0" width="29" height="20"> <path fill-rule="evenodd" clip-rule="evenodd" d="M0 0V19.8533H28.1798V0L0 0Z" fill="white"></path> </mask> <g mask="url(#mask0_4847_80321)"> <path fill-rule="evenodd" clip-rule="evenodd" d="M11.2081 14.1167V5.73667L18.5731 9.92667L11.2081 14.1167ZM27.5914 3.1C27.2673 1.87917 26.3123 0.918333 25.0998 0.5925C22.9023 0 14.0898 0 14.0898 0C14.0898 0 5.27809 0 3.08059 0.5925C1.86809 0.918333 0.913089 1.87917 0.588923 3.1C-0.000244141 5.31167 -0.000244141 9.92667 -0.000244141 9.92667C-0.000244141 9.92667 -0.000244141 14.5417 0.588923 16.7533C0.913089 17.9733 1.86809 18.935 3.08059 19.2608C5.27809 19.8533 14.0898 19.8533 14.0898 19.8533C14.0898 19.8533 22.9023 19.8533 25.0998 19.2608C26.3123 18.935 27.2673 17.9733 27.5914 16.7533C28.1798 14.5417 28.1798 9.92667 28.1798 9.92667C28.1798 9.92667 28.1798 5.31167 27.5914 3.1Z" fill="#0077C5"></path> </g> </svg> 