<?xml version="1.0" encoding="UTF-8"?> <svg xmlns="http://www.w3.org/2000/svg" width="25" height="20" viewBox="0 0 25 20" fill="none"> <mask id="mask0_4847_80318" style="mask-type:alpha" maskUnits="userSpaceOnUse" x="0" y="0" width="25" height="20"> <path fill-rule="evenodd" clip-rule="evenodd" d="M0.179749 20V0H24.357V20H0.179749Z" fill="white"></path> </mask> <g mask="url(#mask0_4847_80318)"> <path fill-rule="evenodd" clip-rule="evenodd" d="M24.357 2.36736C23.4673 2.7689 22.5122 3.04058 21.508 3.16273C22.5322 2.53724 23.3184 1.54813 23.6887 0.368764C22.7308 0.947915 21.6694 1.36841 20.5397 1.59446C19.6349 0.61306 18.3453 -0.000488281 16.9191 -0.000488281C14.1797 -0.000488281 11.9577 2.25995 11.9577 5.049C11.9577 5.44493 12.0025 5.82963 12.0866 6.19958C7.96389 5.98898 4.31009 3.97845 1.86251 0.924047C1.4363 1.66957 1.19078 2.53724 1.19078 3.46248C1.19078 5.21467 2.06665 6.75978 3.39768 7.66466C2.58458 7.63868 1.81975 7.41194 1.15078 7.03286V7.09674C1.15078 9.54321 2.86044 11.5839 5.13009 12.0479C4.71354 12.1631 4.27561 12.2249 3.8232 12.2249C3.5032 12.2249 3.19216 12.1933 2.8894 12.135C3.52113 14.1406 5.35285 15.6001 7.5232 15.6408C5.82527 16.9956 3.68733 17.8022 1.36251 17.8022C0.962507 17.8022 0.566645 17.7784 0.179749 17.7313C2.37492 19.1648 4.98251 20.0002 7.7832 20.0002C16.9066 20.0002 21.8963 12.3063 21.8963 5.63377C21.8963 5.41545 21.8915 5.19783 21.8825 4.98161C22.8508 4.26908 23.6922 3.37964 24.357 2.36736Z" fill="#0077C5"></path> </g> </svg> 