<?xml version="1.0" encoding="UTF-8"?> <svg xmlns="http://www.w3.org/2000/svg" fill="none" height="30" viewBox="0 0 26 30" width="26"> <g clip-rule="evenodd" fill="#06b6c9" fill-rule="evenodd"> <path d="m7.14286 8.83857c0-2.87286 1.9-5.33857 4.51714-5.86286 1.7557-.35285 3.4657.06429 4.8157 1.17143 1.3329 1.09143 2.0957 2.70286 2.0957 4.42286v2.8571h2.8572v-2.8571c0-2.58-1.1457-4.99714-3.1415-6.63286-1.9971-1.63714-4.6171-2.278568-7.1871-1.762854-3.94857.79-6.81429 4.434284-6.81429 8.664284v2.58853h2.85715z"></path> <path d="m14.2857 22.4589v3.2528h-2.8571v-3.2528c-.8515-.4958-1.4286-1.4058-1.4286-2.4615 0-1.5771 1.28-2.8571 2.8571-2.8571 1.5772 0 2.8572 1.28 2.8572 2.8571 0 1.0557-.5772 1.9657-1.4286 2.4615m10-9.6043h-22.85713c-.789999 0-1.42857.64-1.42857 1.4285v14.2858c0 .79.638571 1.4285 1.42857 1.4285h22.85713c.79 0 1.4286-.6385 1.4286-1.4285v-14.2858c0-.7885-.6386-1.4285-1.4286-1.4285"></path> </g> </svg> 