<?xml version="1.0" encoding="UTF-8"?> <!-- Generator: Adobe Illustrator 26.4.1, SVG Export Plug-In . SVG Version: 6.00 Build 0) --> <svg xmlns="http://www.w3.org/2000/svg" xmlns:xlink="http://www.w3.org/1999/xlink" id="Layer_1" x="0px" y="0px" width="141.8px" height="32px" viewBox="0 0 141.8 32" style="enable-background:new 0 0 141.8 32;" xml:space="preserve"> <style type="text/css"> .st0{fill:#D52B1E;} .st1{fill:#FFFFFF;} </style> <path d="M62.8,17.6L62.8,17.6l-0.1-2h-3.4v12.7h3.5v-6.8c0,0,0.2-3.1,3.2-3.1c0.3,0,0.7,0,1.1,0.1v-3.2c-0.2-0.1-0.8-0.1-1-0.1 C64.8,15.3,63.6,16.4,62.8,17.6z M38.8,12.1h-3.5v3.6h-2.1v2.8h2.1V24c0,2,0.5,4.6,4.3,4.6c0.7,0,1.7-0.2,2.2-0.4l-0.1-2.7 c-0.4,0.1-0.9,0.3-1.5,0.3c-1,0-1.4-0.7-1.4-1.8v-5.6h3.1v-2.8h-3.1V12.1z M52.9,22.6c0,1.5-1,3.1-2.8,3.1c-1.4,0-2.1-1-2.1-3.1v-7 h-3.5v7.9c0,2.6,1.3,5.2,4.8,5.2c1.7,0,3-1.3,3.7-2.3H53v1.9h3.4V15.6h-3.5L52.9,22.6L52.9,22.6z M132.1,21.6l4.6-6h-4.1l-2.6,3.7 l-2.5-3.7h-4.2l4.6,6l-5.2,6.7h4.2l3.1-4.3l3.1,4.3h4.3L132.1,21.6z M76.7,15.3c-1.6,0-2.8,0.7-3.9,1.7h-0.1V8.6h-3.5v19.7h3.4v-1.8 h0.1c0.8,1.3,2.4,2.2,4,2.2c3.6,0,6.4-2.8,6.4-6.8C83,18.1,80.3,15.3,76.7,15.3z M76,25.7c-2.1,0-3.4-1.9-3.4-3.7 c0-1.8,1.3-3.8,3.4-3.8c2.3,0,3.4,1.9,3.4,3.7C79.4,23.8,78.2,25.7,76,25.7z M105.1,12.1h-3.5v3.6h-2.1v2.8h2.1V24 c0,2,0.5,4.6,4.3,4.6c0.7,0,1.7-0.2,2.2-0.4l-0.1-2.7c-0.4,0.1-0.9,0.3-1.5,0.3c-1,0-1.4-0.7-1.4-1.8v-5.6h3.1v-2.8h-3.1V12.1z M91.5,15.3c-4,0-6.9,2.8-6.9,6.7c0,4,3,6.8,6.9,6.8c3.9,0,6.9-2.8,6.9-6.8C98.4,18.1,95.5,15.3,91.5,15.3z M91.5,25.7 c-2.3,0-3.3-2-3.3-3.8c0-1.8,1-3.7,3.3-3.7c2.3,0,3.3,1.9,3.3,3.7C94.8,23.7,93.8,25.7,91.5,25.7z M116,15.3c-2,0-4.1,0.8-5.5,2.1 l1.8,2c0.8-0.8,2.2-1.4,3.4-1.4c1.3,0,2.5,0.6,2.5,2.1v0.2c-3.7,0-8.4,0.5-8.4,4.3c0,2.8,2.4,4,4.8,4c1.5,0,2.8-0.9,3.6-1.8h0.1v1.5 h3.3v-7.7C121.7,18.6,120.9,15.3,116,15.3z M118.3,22.9c0,1.9-1.1,3.1-3,3.1c-0.7,0-2-0.2-2-1.4c0-1.2,1.5-2,4.5-2h0.5V22.9z"></path> <path d="M141,26.7c0-0.4-0.3-0.5-0.6-0.5h-0.6v1.6h0.3v-0.7h0.2l0.4,0.7h0.4l-0.4-0.7C140.8,27.1,141,27,141,26.7z M140.1,27v-0.5 h0.3c0.2,0,0.3,0,0.3,0.2c0,0.2-0.2,0.2-0.4,0.2H140.1z M140.3,25.6c-0.8,0-1.5,0.6-1.5,1.5c0,0.8,0.7,1.4,1.5,1.4 c0.8,0,1.5-0.6,1.5-1.4C141.8,26.3,141.1,25.6,140.3,25.6z M140.3,28.3c-0.7,0-1.2-0.6-1.2-1.2c0-0.7,0.6-1.2,1.2-1.2 c0.7,0,1.2,0.6,1.2,1.2C141.6,27.7,141,28.3,140.3,28.3z"></path> <path class="st0" d="M14.8,30.8c8.2,0,14.8-6.6,14.8-14.8S23,1.2,14.8,1.2S0,7.8,0,16S6.6,30.8,14.8,30.8z"></path> <path class="st1" d="M11.5,21.4c-1.7-1.2-3.3-2.5-4.9-3.9C6,18.8,5.5,20.1,5,21.4c2.5,2.1,5.8,4.5,8.1,5.9c3-7.7,7.6-12.7,12-16.2 c-0.6-1.2-1.3-2.3-2.3-3.2C18.2,11.5,14.3,16.1,11.5,21.4z"></path> <path d="M52.2,5.9c0,1.7,1.3,2.9,3,2.9s3-1.2,3-2.9V2.1h-1.6v3.6c0,0.9-0.6,1.5-1.4,1.5c-0.8,0-1.4-0.6-1.4-1.5V2.1h-1.6L52.2,5.9z"></path> <path d="M62.6,3.6h2v5h1.6v-5h2V2.1h-5.5V3.6z"></path> <path d="M61.6,2.1h-1.6v6.6h1.6V2.1z"></path> <path d="M45.6,3.6h2v5h1.6v-5h2V2.1h-5.5L45.6,3.6L45.6,3.6z"></path> <path d="M37,2.1h-1.6v6.6H37V5.4V2.1z"></path> <path d="M44.7,4.8c0-1.7-1.3-2.9-3-2.9c-1.7,0-3,1.2-3,2.9v3.8h1.6V5c0-0.9,0.6-1.5,1.4-1.5c0.8,0,1.4,0.6,1.4,1.5v3.6h1.6L44.7,4.8 z"></path> </svg> 