<?xml version="1.0" encoding="UTF-8"?> <svg xmlns="http://www.w3.org/2000/svg" width="21" height="20" viewBox="0 0 21 20" fill="none"> <g clip-path="url(#clip0_4847_80336)"> <path d="M16.5768 15.1958C16.4525 15.1287 16.3011 15.1352 16.183 15.2129C15.2891 15.8005 14.383 16.0984 13.4895 16.0984C13.0093 16.0984 12.5968 15.9912 12.2267 15.7695C11.9751 15.6206 11.7415 15.3602 11.6577 15.1339C11.5764 14.9188 11.5773 14.3395 11.5785 13.5379L11.5789 8.65001H15.6401C15.8525 8.65001 16.0247 8.47777 16.0247 8.26539V4.83093C16.0247 4.61854 15.8525 4.44631 15.6401 4.44631H11.5789V0.384616C11.5789 0.172231 11.4068 0 11.1943 0H8.45845C8.26399 0 8.10015 0.145154 8.07661 0.338231C7.9623 1.27892 7.74907 2.06 7.44222 2.661C7.14299 3.25331 6.73815 3.76877 6.2383 4.1937C5.83784 4.53523 5.1523 4.8657 4.20061 5.17593C4.0423 5.22754 3.93522 5.37508 3.93522 5.54162V8.26547C3.93522 8.47785 4.10738 8.65008 4.31984 8.65008H6.54699V15.009C6.54699 15.946 6.64638 16.6511 6.85099 17.1649C7.05945 17.6868 7.42953 18.1782 7.95122 18.6259C8.46438 19.0656 9.08892 19.4095 9.80953 19.6488C10.5081 19.8766 11.0645 20.0001 12.0027 20.0001C12.7958 20.0001 13.5517 19.9179 14.2498 19.7556C14.9361 19.5954 15.7127 19.3124 16.5581 18.9145C16.693 18.851 16.779 18.7155 16.779 18.5665V15.5344C16.7788 15.3929 16.7013 15.2629 16.5768 15.1958Z" fill="#0077C5"></path> </g> <defs> <clipPath id="clip0_4847_80336"> <rect width="20" height="20" fill="white" transform="translate(0.356995)"></rect> </clipPath> </defs> </svg> 