<svg xmlns="http://www.w3.org/2000/svg" width="20.003" height="20.003" viewBox="0 0 20.003 20.003"><path d="M17.073,0H2.93A2.934,2.934,0,0,0,0,2.93V17.073A2.934,2.934,0,0,0,2.93,20H17.073A2.934,2.934,0,0,0,20,17.073V2.93A2.934,2.934,0,0,0,17.073,0ZM10.041,15.237a5.274,5.274,0,1,1,5.274-5.274A5.28,5.28,0,0,1,10.041,15.237ZM15.9,5.86A1.758,1.758,0,1,1,17.659,4.1,1.76,1.76,0,0,1,15.9,5.86Zm0,0" fill="#fff"/><path d="M392.586,90a.586.586,0,1,0,.586.586A.586.586,0,0,0,392.586,90Zm0,0" transform="translate(-376.685 -86.484)" fill="#fff"/><path d="M156.1,150a4.1,4.1,0,1,0,4.1,4.1A4.107,4.107,0,0,0,156.1,150Zm0,0" transform="translate(-146.062 -144.14)" fill="#fff"/></svg>