<svg xmlns="http://www.w3.org/2000/svg" width="24.625" height="20.003" viewBox="0 0 24.625 20.003"><g transform="translate(0 0)"><path d="M24.627,59.808a10.088,10.088,0,0,1-2.9.8,5.073,5.073,0,0,0,2.22-2.793,10.184,10.184,0,0,1-3.21,1.226,5.056,5.056,0,0,0-8.608,4.606A14.342,14.342,0,0,1,1.717,58.364,5.058,5.058,0,0,0,3.28,65.107a5.052,5.052,0,0,1-2.288-.634v.063A5.057,5.057,0,0,0,5.044,69.49a5.117,5.117,0,0,1-1.331.177,4.848,4.848,0,0,1-.951-.094A5.054,5.054,0,0,0,7.48,73.081,10.135,10.135,0,0,1,1.206,75.24,10.736,10.736,0,0,1,0,75.171a14.28,14.28,0,0,0,7.743,2.273A14.273,14.273,0,0,0,22.117,63.072l-.017-.654A10.088,10.088,0,0,0,24.627,59.808Z" transform="translate(-0.001 -57.441)" fill="#fff"/></g></svg>