<?xml version="1.0" encoding="UTF-8"?>
<svg width="113px" height="37px" viewBox="0 0 113 37" version="1.1" xmlns="http://www.w3.org/2000/svg" xmlns:xlink="http://www.w3.org/1999/xlink">
    <!-- Generator: Sketch 55.2 (78181) - https://sketchapp.com -->
    <title>Group 13 Copy</title>
    <desc>Created with Sketch.</desc>
    <defs>
        <polygon id="path-1" points="0.319581232 0.309833333 23.6153431 0.309833333 23.6153431 29.3458333 0.319581232 29.3458333"></polygon>
        <polygon id="path-3" points="0.176591496 0.3166 21.7688701 0.3166 21.7688701 19.6666667 0.176591496 19.6666667"></polygon>
    </defs>
    <g id="Working-Design" stroke="none" stroke-width="1" fill="none" fill-rule="evenodd">
        <g id="Group-13-Copy">
            <path d="M21.1161543,18.5683333 C21.1161543,24.648 16.603776,28.8946667 10.1425619,28.8946667 L4.16052082,28.8946667 L4.16052082,8.08466667 L10.1425619,8.08466667 C16.603776,8.08466667 21.1161543,12.3633333 21.1161543,18.4896667 L21.1161543,18.5683333 Z M10.1425619,4.16866667 L2.06057654,4.16866667 C0.943500293,4.16866667 6.62756598e-05,5.12866667 6.62756598e-05,6.26466667 L6.62756598e-05,30.7143333 C6.62756598e-05,31.8506667 0.943500293,32.8106667 2.06057654,32.8106667 L10.1425619,32.8106667 C18.9807525,32.8106667 25.395905,26.7876667 25.395905,18.4896667 L25.395905,18.4106667 C25.395905,10.1583333 18.9807525,4.16866667 10.1425619,4.16866667 L10.1425619,4.16866667 Z" id="Fill-1" fill="#FFFFFF"></path>
            <path d="M54.7906845,18.5683333 C54.7906845,24.725 50.345576,29.3676667 44.4510188,29.3676667 C38.5117255,29.3676667 34.0321537,24.691 34.0321537,18.4896667 L34.0321537,18.4106667 C34.0321537,12.254 38.4772622,7.61133333 44.3718194,7.61133333 C50.311444,7.61133333 54.7906845,12.288 54.7906845,18.4896667 L54.7906845,18.5683333 Z M44.4510188,3.69533333 C40.3243648,3.69533333 36.5496346,5.27366667 33.8227226,8.139 C31.1982065,10.897 29.7524029,14.573 29.7524029,18.4896667 L29.7524029,18.5683333 C29.7524029,22.4853333 31.1839572,26.147 33.7829572,28.8793333 C36.4846845,31.7193333 40.2451654,33.2836667 44.3718194,33.2836667 C48.4988047,33.2836667 52.2732035,31.7053333 55.0004469,28.84 C57.624963,26.082 59.0707666,22.406 59.0707666,18.4896667 L59.0707666,18.4106667 C59.0707666,14.4936667 57.6388809,10.8323333 55.0398809,8.09966667 C52.3381537,5.25966667 48.5776727,3.69533333 44.4510188,3.69533333 L44.4510188,3.69533333 Z" id="Fill-3" fill="#FFFFFF"></path>
            <g id="Group-7" transform="translate(89.140762, 3.661667)">
                <mask id="mask-2" fill="white">
                    <use xlink:href="#path-1"></use>
                </mask>
                <g id="Clip-6"></g>
                <path d="M21.5549654,0.309833333 C20.3967982,0.309833333 19.4546897,1.25016667 19.4546897,2.40583333 L19.4546897,12.7715 L4.48036716,12.7715 L4.48036716,2.40583333 C4.48036716,1.25016667 3.53825865,0.309833333 2.3800915,0.309833333 C1.26334663,0.309833333 0.319581232,1.26983333 0.319581232,2.40583333 L0.319581232,27.2501667 C0.319581232,28.3861667 1.26334663,29.3458333 2.3800915,29.3458333 C3.53825865,29.3458333 4.48036716,28.4058333 4.48036716,27.2501667 L4.48036716,16.7265 L19.4546897,16.7265 L19.4546897,27.2501667 C19.4546897,28.4058333 20.3967982,29.3458333 21.5549654,29.3458333 C22.6717103,29.3458333 23.6154757,28.3861667 23.6154757,27.2501667 L23.6154757,2.40583333 C23.6154757,1.26983333 22.6717103,0.309833333 21.5549654,0.309833333" id="Fill-5" fill="#FFFFFF" mask="url(#mask-2)"></path>
            </g>
            <path d="M83.1019894,6.5913 C81.0524147,5.12496667 78.9474997,4.27496667 76.532746,3.94196667 L76.532746,2.0743 C76.532746,0.928633333 75.6095261,0.0003 74.4705789,0.0003 C73.331963,0.0003 72.4084117,0.928633333 72.4084117,2.0743 L72.4084117,3.86896667 C67.6262915,4.44663333 64.3413384,7.64496667 64.3413384,11.8249667 C64.3413384,15.4199667 66.0787548,17.7099667 69.9446141,19.2003 L75.2738399,16.4119667 L74.7469484,16.2889667 C70.605051,15.3196333 68.501793,14.3326333 68.501793,11.6276333 C68.501793,9.26296667 70.7173883,7.6113 73.8893413,7.6113 C76.4402915,7.6113 78.5591243,8.32296667 80.7624587,9.92163333 C81.1186903,10.1749667 81.5027578,10.2929667 81.9716581,10.2929667 C83.0857519,10.2929667 83.9927343,9.3883 83.9927343,8.27596667 C83.9927343,7.3553 83.3757079,6.79563333 83.1019894,6.5913" id="Fill-8" fill="#FFFFFF"></path>
            <g id="Group-12" transform="translate(63.293255, 17.328333)">
                <mask id="mask-4" fill="white">
                    <use xlink:href="#path-3"></use>
                </mask>
                <g id="Clip-11"></g>
                <path d="M21.7688701,7.5496 C21.7688701,4.11626667 20.0158789,1.81126667 16.2739551,0.3166 L10.9765416,3.08793333 L11.5925739,3.2306 C17.1189698,4.51026667 17.5683188,6.05093333 17.5683188,7.7866 C17.5683188,10.3302667 15.2920812,12.0396 11.9034067,12.0396 C8.62044194,12.0396 6.10428651,11.1002667 3.49401965,8.89993333 C3.17987302,8.59826667 2.68578798,8.4116 2.19700499,8.4116 C1.06435396,8.4116 0.176591496,9.31493333 0.176591496,10.4679333 C0.176591496,11.1279333 0.477482991,11.7252667 0.982503519,12.0706 C3.50661202,14.0639333 6.17354457,15.2482667 9.11518974,15.6832667 L9.11518974,17.5926 C9.11518974,18.7379333 10.0387411,19.6669333 11.1773569,19.6669333 C12.3163041,19.6669333 13.239524,18.7379333 13.239524,17.5926 L13.239524,15.8026 C18.3722425,15.2866 21.7688701,12.0422667 21.7688701,7.5496" id="Fill-10" fill="#FFFFFF" mask="url(#mask-4)"></path>
            </g>
        </g>
    </g>
</svg>