<svg xmlns="http://www.w3.org/2000/svg" width="20.933" height="20.003" viewBox="0 0 20.933 20.003"><path d="M20.933,21.822v7.739H16.447V22.34c0-1.814-.649-3.052-2.273-3.052a2.455,2.455,0,0,0-2.3,1.641,3.07,3.07,0,0,0-.149,1.094v7.537H7.235s.06-12.23,0-13.5h4.488v1.913c-.009.014-.021.03-.029.044h.029v-.044a4.456,4.456,0,0,1,4.044-2.23C18.72,15.747,20.933,17.676,20.933,21.822ZM2.54,9.558a2.339,2.339,0,1,0-.06,4.665h.03a2.34,2.34,0,1,0,.03-4.665Zm-2.273,20H4.753v-13.5H.267Z" transform="translate(0 -9.558)" fill="#fff"/></svg>