<?xml version="1.0" encoding="UTF-8"?>
<svg width="75px" height="24px" viewBox="0 0 75 24" version="1.1" xmlns="http://www.w3.org/2000/svg" xmlns:xlink="http://www.w3.org/1999/xlink">
    <!-- Generator: Sketch 64 (93537) - https://sketch.com -->
    <title>Dosh Logo</title>
    <desc>Created with Sketch.</desc>
    <g id="Consumer" stroke="none" stroke-width="1" fill="none" fill-rule="evenodd">
        <g id="Artboard" transform="translate(-80.000000, -132.000000)" fill="#683CAF" fill-rule="nonzero">
            <g id="Consumer-Top-Nav-Copy" transform="translate(80.000000, 123.000000)">
                <g id="Nav" transform="translate(0.000000, 8.000000)">
                    <path d="M52.5630782,12.1428571 C55.0737434,13.1387046 56.25,14.6746342 56.25,16.9633363 C56.25,19.9577153 53.9712405,22.1195627 50.5276297,22.462906 L50.5276297,22.462906 L50.5276297,23.6175118 C50.5276295,24.381039 49.9080672,25 49.1437984,25 C48.3795297,25 47.7599674,24.381039 47.7599672,23.6175118 L47.7599672,23.6175118 L47.7599672,22.3831471 C45.7586452,22.0812415 43.8745542,21.2501294 42.3029579,19.9759459 C41.9563919,19.7316539 41.7536065,19.3315981 41.7615909,18.9079356 C41.7564841,18.5460075 41.8972557,18.1972275 42.152233,17.9400688 C42.4072104,17.6829101 42.7549776,17.5389719 43.1172894,17.5406392 C43.4375382,17.5376133 43.7475083,17.6534686 43.9871261,17.8657519 C45.532691,19.2560519 47.5511578,20.0045672 49.6304204,19.9584749 C51.9046178,19.9584749 53.4321546,18.8190613 53.4321546,17.1236138 C53.4321546,15.9644504 53.1302969,14.9382185 49.4220854,14.0851775 L49.4220854,14.0851775 L49.0084567,13.9902264 Z M6.80783926,3.57142857 C12.7396027,3.57142857 17.0446941,7.51469501 17.0454545,12.9482235 L17.0454545,12.9482235 L17.0454545,13 C17.0454545,18.4635439 12.7396027,22.4285714 6.80783926,22.4285714 L6.80783926,22.4285714 L1.38331765,22.4285714 C0.619291783,22.414757 0.00564516261,21.8026018 0,21.0486158 L0,21.0486158 L0,4.95138423 C0.00564516261,4.1973982 0.619291783,3.58524298 1.38331765,3.57142857 L1.38331765,3.57142857 Z M29.4295366,2.71538944 C32.0921055,2.67514298 34.6534143,3.73709006 36.5095708,5.65085021 C38.260674,7.50496029 39.2265343,9.9672541 39.2041654,12.5202536 L39.2041654,12.5202536 L39.2041654,12.5726455 C39.2216341,15.1374158 38.2462312,17.6090618 36.4830566,19.4678651 C34.6062375,21.3584493 32.0565108,22.423569 29.3956403,22.4285714 C26.7347698,22.4335387 24.1810886,21.3779796 22.2972316,19.4944407 C20.546536,17.6400709 19.5807431,15.1779487 19.602637,12.6250373 L19.602637,12.6250373 L19.602637,12.5726455 C19.585051,10.0076279 20.5604567,7.53570282 22.3237458,5.67666647 C24.1847781,3.75141191 26.7552704,2.68018143 29.4295366,2.71538944 Z M73.6434935,3.57142857 C74.3928313,3.58545944 74.9944708,4.18921028 75,4.9327028 L75,4.9327028 L75,21.0695253 C75,21.8201057 74.3866582,22.4285714 73.6300628,22.4285714 C72.8734674,22.4285714 72.2601256,21.8201057 72.2601256,21.0695253 L72.2601256,21.0695253 L72.2601256,14.2350628 L62.3989653,14.2350628 L62.3989653,21.0695253 C62.3989653,21.8201057 61.7856236,22.4285714 61.0290281,22.4285714 C60.2724327,22.4285714 59.6590909,21.8201057 59.6590909,21.0695253 L59.6590909,21.0695253 L59.6590909,4.9327028 C59.6590909,4.18212234 60.2724327,3.57365665 61.0290281,3.57365665 C61.7856236,3.57365665 62.3989653,4.18212234 62.3989653,4.9327028 L62.3989653,4.9327028 L62.3989653,11.6642745 L72.2601256,11.6642745 L72.2601256,4.9327028 C72.2638261,4.17808345 72.8828219,3.56897697 73.6434935,3.57142857 Z M6.80479733,6.14974703 L2.79021026,6.14974703 L2.79021026,19.850253 L6.80783926,19.850253 C11.1448709,19.850253 14.1731122,17.0543232 14.1731122,13.0517765 L14.1731122,13.0517765 L14.1700702,13 C14.1700702,8.96668751 11.1395475,6.14974703 6.80479733,6.14974703 L6.80479733,6.14974703 Z M32.9763994,6.30532481 C30.7935697,4.9928538 28.0692702,4.9825693 25.8766389,6.2785225 C23.6840077,7.57447571 22.3744783,9.96895194 22.463892,12.518735 L22.463892,12.518735 L22.463892,12.5711269 C22.3553186,15.1201625 23.6468158,17.5244579 25.8296455,18.8369289 C28.0124751,20.1493999 30.7367746,20.1596844 32.9294059,18.8637312 C35.1220372,17.567778 36.4315666,15.1733018 36.3421529,12.6235187 L36.3421529,12.6235187 L36.3421529,12.5711269 C36.4507263,10.0220912 35.1592291,7.61779582 32.9763994,6.30532481 Z M49.2036019,1 C49.9445367,1 50.5451831,1.58502442 50.5451833,2.30668873 L50.5451833,2.30668873 L50.5451833,3.38793801 C52.0910629,3.58789018 53.5609067,4.16177059 54.8205524,5.05719735 C55.1742749,5.30287427 55.3882124,5.69673453 55.3977273,6.11977965 C55.3861074,6.59914455 55.104845,7.03347005 54.6656936,7.25018648 C54.2265422,7.46690292 53.7006233,7.43091254 53.2968993,7.15651534 C52.0143858,6.19774138 50.4391687,5.68489301 48.8225044,5.69977246 C46.758533,5.69977246 45.3174388,6.74009796 45.3174388,8.22986705 C45.3174388,9.93430649 46.6855569,10.5560607 49.3805138,11.1663276 L49.3805138,11.1663276 L49.7232804,11.2438674 L46.2587571,13 C43.7436607,12.060907 42.6136364,10.6185233 42.6136364,8.35407431 C42.6136364,5.72059333 44.7505838,3.70599473 47.8620206,3.3419885 L47.8620206,3.3419885 L47.8620206,2.30668873 C47.8620207,1.58502442 48.4626671,1 49.2036019,1 Z" id="Dosh-Logo"></path>
                </g>
            </g>
        </g>
    </g>
</svg>