<?xml version="1.0" encoding="UTF-8"?>
<svg width="42px" height="41px" viewBox="0 0 42 41" version="1.1" xmlns="http://www.w3.org/2000/svg" xmlns:xlink="http://www.w3.org/1999/xlink">
    <title>case_studies</title>
    <g id="Consumer" stroke="none" stroke-width="1" fill="none" fill-rule="evenodd">
        <g id="Artboard" transform="translate(-1995.000000, -414.000000)">
            <g id="Group-4-Copy-2" transform="translate(1970.000000, 382.000000)">
                <g id="case_studies" transform="translate(25.000000, 32.000000)">
                    <path d="M15.3286481,11.8831958 C13.6367041,11.4208575 11.7329281,10.9583883 9.36149156,11.0626501 C6.89738278,11.1709883 4.52480365,13.3472216 4.52239257,16.5515016 L4.52239257,16.5750714 C4.52973785,19.0559143 5.95657511,22.1498628 9.85530935,25.3759884 C21.5422869,35.04674 31.748881,34.6785128 35.6319956,25.4551491 C36.4722384,23.4592912 38.4577872,19.2636212 36.8618116,15.0769526 C35.5827135,11.721538 31.249659,8.5062927 29.5547867,8.50442095 C28.1953918,8.50291031 26.8490683,8.89203524 25.4246808,9.68195027 C21.4429849,13.8023665 18.8423696,12.8431961 15.3286481,11.8831958 Z" id="Fill-4" fill="#683CAF" fill-rule="nonzero" opacity="0.200000003" transform="translate(20.993359, 20.502849) scale(-1, 1) rotate(45.000000) translate(-20.993359, -20.502849) "></path>
                    <g id="data-file-bars-search" transform="translate(11.000000, 6.000000)" stroke="#29166F" stroke-linecap="round" stroke-linejoin="round" stroke-width="2">
                        <line x1="3.75" y1="14.25" x2="8.25" y2="14.25" id="Path"></line>
                        <line x1="8.25" y1="14.25" x2="8.25" y2="6.75" id="Path"></line>
                        <line x1="11.25" y1="9.75" x2="11.25" y2="8.25" id="Path"></line>
                        <line x1="5.25" y1="14.25" x2="5.25" y2="9.75" id="Path"></line>
                        <path d="M9,20.25 L2.25,20.25 C1.42157288,20.25 0.75,19.5784271 0.75,18.75 L0.75,2.25 C0.75,1.42157288 1.42157288,0.75 2.25,0.75 L12.879,0.75 C13.2765472,0.75 13.6578016,0.907981752 13.939,1.189 L16.811,4.061 C17.0920182,4.34219839 17.25,4.72345279 17.25,5.121 L17.25,7.5" id="Path"></path>
                        <circle id="Oval" cx="15.75" cy="15.75" r="5.25"></circle>
                        <line x1="23.25" y1="23.25" x2="19.446" y2="19.478" id="Path"></line>
                    </g>
                </g>
            </g>
        </g>
    </g>
</svg>