<?xml version="1.0" encoding="UTF-8"?>
<svg width="804px" height="704px" viewBox="0 0 804 704" version="1.1" xmlns="http://www.w3.org/2000/svg" xmlns:xlink="http://www.w3.org/1999/xlink">
    <!-- Generator: Sketch 64 (93537) - https://sketch.com -->
    <title>hero_blob_2_a</title>
    <desc>Created with Sketch.</desc>
    <g id="Consumer" stroke="none" stroke-width="1" fill="none" fill-rule="evenodd" opacity="0.200000003">
        <g id="Hero-2-Copy" transform="translate(-288.000000, -100.000000)" fill="#29166F">
            <g id="Hero-2" transform="translate(80.000000, -118.000000)">
                <path d="M809.081788,217.82557 C868.90943,273.94914 908,348.622025 908,419.965547 C907.761643,491.071256 868.671073,558.371978 832.679145,634.471734 C796.687217,710.57149 764.03229,795.470281 694.670363,852.307286 C625.070079,909.144291 518.762796,938.157323 434.146013,907.717421 C349.290873,877.277519 285.887874,787.14687 264.912446,698.443092 C244.175375,609.501502 265.865875,521.748971 267.772732,416.398371 C269.679589,311.285583 251.802804,188.574726 301.857802,130.786474 C351.912801,72.9982212 469.899584,80.1325733 569.294509,102.249065 C668.689435,124.603368 749.254147,161.701999 809.081788,217.82557 Z" id="hero_blob_2_a" style="mix-blend-mode: multiply;" transform="translate(582.000000, 503.000000) rotate(-116.000000) translate(-582.000000, -503.000000) "></path>
            </g>
        </g>
    </g>
</svg>