<?xml version="1.0" encoding="UTF-8"?>
<svg width="29px" height="22px" viewBox="0 0 29 22" version="1.1" xmlns="http://www.w3.org/2000/svg" xmlns:xlink="http://www.w3.org/1999/xlink">
    <title>browse_hotels</title>
    <g id="Consumer" stroke="none" stroke-width="1" fill="none" fill-rule="evenodd">
        <g id="Artboard" transform="translate(-1221.000000, -524.000000)">
            <g id="Group-4-Copy" transform="translate(1191.000000, 382.000000)">
                <g id="browse_hotels" transform="translate(31.000000, 143.000000)">
                    <path d="M20.0408123,1.73396626 C22.1742013,2.72318903 24.5099887,4.04215273 26.1401167,6.29917249 C27.7702447,8.55050707 28.689243,11.7455829 27.370918,13.6273803 C26.052593,15.5148628 22.4969447,16.094752 19.9040566,16.7144375 C17.3111685,17.3341231 15.6810405,17.9992901 13.317902,19.0510499 C10.9547634,20.1028098 7.85861431,21.5354772 5.62129101,20.7964027 C3.38396771,20.0516431 2.00547023,17.1351415 2,14.3948807 C2,11.6546199 3.36755703,9.09628516 4.63664995,6.95296915 C5.90027265,4.80965315 7.06543123,3.0813559 8.61897602,1.90452191 C10.1725208,0.722002738 12.1089816,0.0852616445 14.0454423,0.0909090909 C15.9819031,0.10231721 17.9074234,0.75042868 20.0408123,1.73396626 Z" id="Path" fill="#683CAF" fill-rule="nonzero" opacity="0.200000003"></path>
                    <g id="hotel-single-bed-1" stroke="#29166F" stroke-linecap="round" stroke-linejoin="round" stroke-width="2">
                        <path d="M2.75,8.25 L21.25,8.25 C22.3545695,8.25 23.25,9.1454305 23.25,10.25 L23.25,15 L0.75,15 L0.75,10.25 C0.75,9.1454305 1.6454305,8.25 2.75,8.25 Z" id="Path"></path>
                        <line x1="0.75" y1="15" x2="0.75" y2="18" id="Path"></line>
                        <line x1="23.25" y1="15" x2="23.25" y2="18" id="Path"></line>
                        <path d="M21,8.25 L21,1.5 C21,0.671572875 20.3284271,0 19.5,0 L4.5,0 C3.67157288,0 3,0.671572875 3,1.5 L3,8.25" id="Path"></path>
                        <path d="M8.5,4.5 L15.5,4.5 C16.0522847,4.5 16.5,4.94771525 16.5,5.5 L16.5,8.25 L7.5,8.25 L7.5,5.5 C7.5,4.94771525 7.94771525,4.5 8.5,4.5 Z" id="Path"></path>
                    </g>
                </g>
            </g>
        </g>
    </g>
</svg>