<?xml version="1.0" encoding="UTF-8"?>
<svg width="140px" height="141px" viewBox="0 0 140 141" version="1.1" xmlns="http://www.w3.org/2000/svg" xmlns:xlink="http://www.w3.org/1999/xlink">
    <title>security-graphic-1</title>
    <defs>
        <polygon id="path-1" points="0 0.0230631579 139.240316 0.0230631579 139.240316 139.263158 0 139.263158"></polygon>
    </defs>
    <g id="Consumer" stroke="none" stroke-width="1" fill="none" fill-rule="evenodd">
        <g transform="translate(-130.000000, -2439.000000)" id="security-graphic-1">
            <g transform="translate(130.000000, 2439.000000)">
                <g id="Group-20">
                    <g id="Group-3" transform="translate(0.000000, 0.714000)">
                        <mask id="mask-2" fill="white">
                            <use xlink:href="#path-1"></use>
                        </mask>
                        <g id="Clip-2"></g>
                        <path d="M139.240537,69.6428526 C139.240537,108.093484 108.069905,139.263379 69.6207474,139.263379 C31.1701158,139.263379 -0.000515789474,108.093484 -0.000515789474,69.6428526 C-0.000515789474,31.1929579 31.1701158,0.0230631579 69.6207474,0.0230631579 C108.069905,0.0230631579 139.240537,31.1929579 139.240537,69.6428526" id="Fill-1" fill="#84DBAB" opacity="0.100000001" mask="url(#mask-2)"></path>
                    </g>
                    <path d="M54,58.6761053 L54,43.9503158 C54,34.5894737 61.5887368,27 70.9503158,27 C80.3111579,27 87.9006316,34.5894737 87.9006316,43.9503158 L87.9006316,58.6761053" id="Stroke-6" stroke="#84DBAB" stroke-width="2" stroke-linecap="round" stroke-linejoin="round"></path>
                    <path d="M71.0005131,74 C74.8660852,74 78,77.1331183 78,81 C78,83.7024746 76.4684922,86.0473705 74.2261449,87.2139596 L77,96 L65,96 L67.7752083,87.214481 C65.5319642,86.0480693 64,83.7028773 64,81 C64,77.1331183 67.1339148,74 71.0005131,74 Z" id="Combined-Shape" stroke="#FFFFFF" stroke-width="2" stroke-linecap="round" stroke-linejoin="round"></path>
                    <line x1="100.214505" y1="40.1279789" x2="98.8837684" y2="49.0349263" id="Stroke-14" stroke="#FFFFFF" stroke-width="2" stroke-linecap="round" stroke-linejoin="round"></line>
                    <line x1="120.179832" y1="61.4834316" x2="111.183726" y2="61.8938526" id="Stroke-16" stroke="#FFFFFF" stroke-width="2" stroke-linecap="round" stroke-linejoin="round"></line>
                    <line x1="106.794284" y1="53.0482842" x2="114.908389" y2="45.7277579" id="Stroke-18" stroke="#FFFFFF" stroke-width="2" stroke-linecap="round" stroke-linejoin="round"></line>
                </g>
                <path d="M44.1277704,59 L96.8722296,59 C98.6552671,59 99.3018396,59.1856512 99.9536914,59.5342654 C100.605543,59.8828796 101.11712,60.3944567 101.465735,61.0463086 C101.814349,61.6981604 102,62.3447329 102,64.1277704 L102,106.87223 C102,108.655267 101.814349,109.30184 101.465735,109.953691 C101.11712,110.605543 100.605543,111.11712 99.9536914,111.465735 C99.3018396,111.814349 98.6552671,112 96.8722296,112 L44.1277704,112 C42.3447329,112 41.6981604,111.814349 41.0463086,111.465735 C40.3944567,111.11712 39.8828796,110.605543 39.5342654,109.953691 C39.1856512,109.30184 39,108.655267 39,106.87223 L39,64.1277704 C39,62.3447329 39.1856512,61.6981604 39.5342654,61.0463086 C39.8828796,60.3944567 40.3944567,59.8828796 41.0463086,59.5342654 C41.6981604,59.1856512 42.3447329,59 44.1277704,59 Z" id="Rectangle" stroke="#84DBAB" stroke-width="2" stroke-linecap="round" stroke-linejoin="round"></path>
            </g>
        </g>
    </g>
</svg>