<?xml version="1.0" encoding="UTF-8"?>
<svg width="32px" height="34px" viewBox="0 0 32 34" version="1.1" xmlns="http://www.w3.org/2000/svg" xmlns:xlink="http://www.w3.org/1999/xlink">
    <title>market_research</title>
    <g id="Consumer" stroke="none" stroke-width="1" fill="none" fill-rule="evenodd">
        <g id="Artboard" transform="translate(-2000.000000, -510.000000)">
            <g id="Group-4-Copy-2" transform="translate(1970.000000, 382.000000)">
                <g id="market_research" transform="translate(30.000000, 128.000000)">
                    <path d="M21.0408123,7.73396626 C23.1742013,8.72318903 25.5099887,10.0421527 27.1401167,12.2991725 C28.7702447,14.5505071 29.689243,17.7455829 28.370918,19.6273803 C27.052593,21.5148628 23.4969447,22.094752 20.9040566,22.7144375 C18.3111685,23.3341231 16.6810405,23.9992901 14.317902,25.0510499 C11.9547634,26.1028098 8.85861431,27.5354772 6.62129101,26.7964027 C4.38396771,26.0516431 3.00547023,23.1351415 3,20.3948807 C3,17.6546199 4.36755703,15.0962852 5.63664995,12.9529692 C6.90027265,10.8096532 8.06543123,9.0813559 9.61897602,7.90452191 C11.1725208,6.72200274 13.1089816,6.08526164 15.0454423,6.09090909 C16.9819031,6.10231721 18.9074234,6.75042868 21.0408123,7.73396626 Z" id="Path" fill="#683CAF" fill-rule="nonzero" opacity="0.200000003" transform="translate(16.000000, 16.545455) rotate(-300.000000) translate(-16.000000, -16.545455) "></path>
                    <g id="lab-tube-experiment" transform="translate(3.000000, 8.000000)" stroke="#29166F" stroke-linecap="round" stroke-linejoin="round" stroke-width="2">
                        <path d="M14,19.5 C14,21.5710678 12.3210678,23.25 10.25,23.25 C8.17893219,23.25 6.5,21.5710678 6.5,19.5 L6.5,0.75 L14,0.75 L14,19.5 Z" id="Path"></path>
                        <line x1="16.25" y1="0.75" x2="4.25" y2="0.75" id="Path"></line>
                        <path d="M11.375,8.25 C11.5821068,8.25 11.75,8.41789322 11.75,8.625" id="Path"></path>
                        <path d="M11,8.625 C11,8.41789322 11.1678932,8.25 11.375,8.25" id="Path"></path>
                        <path d="M11.375,9 C11.1678932,9 11,8.83210678 11,8.625" id="Path"></path>
                        <path d="M11.75,8.625 C11.75,8.83210678 11.5821068,9 11.375,9" id="Path"></path>
                        <path d="M9.125,12.75 C9.33210678,12.75 9.5,12.9178932 9.5,13.125" id="Path"></path>
                        <path d="M8.75,13.125 C8.75,12.9178932 8.91789322,12.75 9.125,12.75" id="Path"></path>
                        <path d="M9.125,13.5 C8.91789322,13.5 8.75,13.3321068 8.75,13.125" id="Path"></path>
                        <path d="M9.5,13.125 C9.5,13.3321068 9.33210678,13.5 9.125,13.5" id="Path"></path>
                        <path d="M10.625,17.25 C10.8321068,17.25 11,17.4178932 11,17.625" id="Path"></path>
                        <path d="M10.25,17.625 C10.25,17.4178932 10.4178932,17.25 10.625,17.25" id="Path"></path>
                        <path d="M10.625,18 C10.4178932,18 10.25,17.8321068 10.25,17.625" id="Path"></path>
                        <path d="M11,17.625 C11,17.8321068 10.8321068,18 10.625,18" id="Path"></path>
                        <line x1="14" y1="5.25" x2="6.5" y2="5.25" id="Path"></line>
                        <line x1="0.5" y1="12.75" x2="3.5" y2="12.75" id="Path"></line>
                        <line x1="2" y1="11.25" x2="2" y2="14.25" id="Path"></line>
                        <circle id="Oval" cx="20" cy="5.25" r="1.5"></circle>
                    </g>
                </g>
            </g>
        </g>
    </g>
</svg>