<?xml version="1.0" encoding="UTF-8"?>
<svg width="640px" height="632px" viewBox="0 0 640 632" version="1.1" xmlns="http://www.w3.org/2000/svg" xmlns:xlink="http://www.w3.org/1999/xlink">
    <title>hero_blob_3_a</title>
    <g id="Page-1" stroke="none" stroke-width="1" fill="none" fill-rule="evenodd">
        <path d="M437.734584,39.3767093 C496.238674,65.4921904 560.293151,100.312832 604.996276,159.898154 C649.699401,219.333387 674.901163,303.683389 638.748636,353.362839 C602.596109,403.192378 505.089293,418.501453 433.984322,434.861151 C362.879351,451.220849 318.176226,468.781258 253.371696,496.547718 C188.567166,524.314178 103.661231,562.136599 42.306942,542.625033 C-19.0473469,522.963377 -56.8499895,445.967735 -57,373.62485 C-57,301.281966 -19.4973784,233.741928 15.3050544,177.158386 C49.9574768,120.574843 81.9097104,74.9477957 124.512689,43.8793785 C167.115667,12.6608723 220.219379,-4.14909259 273.323091,-4 C326.426803,-3.69882567 379.230494,13.4113171 437.734584,39.3767093 Z" id="hero_blob_3_a" fill="#FEAEA5" style="mix-blend-mode: multiply;" transform="translate(299.500000, 272.000000) rotate(-27.000000) translate(-299.500000, -272.000000) "></path>
    </g>
</svg>