<?xml version="1.0" encoding="UTF-8"?>
<svg width="30px" height="29px" viewBox="0 0 30 29" version="1.1" xmlns="http://www.w3.org/2000/svg" xmlns:xlink="http://www.w3.org/1999/xlink">
    <!-- Generator: Sketch 64 (93537) - https://sketch.com -->
    <title>dosh_for_local</title>
    <desc>Created with Sketch.</desc>
    <g id="Consumer" stroke="none" stroke-width="1" fill="none" fill-rule="evenodd">
        <g id="Artboard" transform="translate(-414.000000, -665.000000)">
            <g id="dosh_for_local" transform="translate(414.000000, 665.000000)">
                <path d="M21.6586064,5.76681458 C23.7734532,7.70161933 25.7829628,9.58045865 27.5169752,12.5066509 C29.2428846,15.4328433 30.7013997,19.4063885 29.6399248,22.6443882 C28.5865529,25.8743928 25.0212939,28.3768469 21.7315322,27.9531087 C18.4498733,27.5373655 15.4437118,24.2114202 12.0567158,22.6683734 C8.67782259,21.1253266 4.90999207,21.3731735 2.67360234,19.7102009 C0.445315478,18.0392331 -0.243427735,14.4574458 0.0725838571,10.7637277 C0.380492588,7.07000951 1.70125898,3.26436051 4.37520322,1.42549649 C7.04914746,-0.413367524 11.0762695,-0.29344161 14.203974,0.769901494 C17.3235756,1.8332446 19.5518625,3.83200983 21.6586064,5.76681458 Z" id="Path" fill="#8FE2B4" fill-rule="nonzero" opacity="0.200000003"></path>
                <g id="map-pin" transform="translate(6.000000, 6.000000)" stroke="#106756" stroke-linecap="round" stroke-linejoin="round" stroke-width="2">
                    <path d="M18,9.00000013 C18,16.0000001 9,22.0000001 9,22.0000001 C9,22.0000001 0,16.0000001 0,9.00000013 C0,4.0294373 4.0294373,1.34110451e-07 9,1.34110451e-07 C13.9705627,1.34110451e-07 18,4.0294373 18,9.00000013 L18,9.00000013 Z" id="Path"></path>
                    <circle id="Oval" cx="9" cy="9" r="3"></circle>
                </g>
            </g>
        </g>
    </g>
</svg>