<?xml version="1.0" encoding="UTF-8"?>
<svg width="640px" height="632px" viewBox="0 0 640 632" version="1.1" xmlns="http://www.w3.org/2000/svg" xmlns:xlink="http://www.w3.org/1999/xlink">
    <!-- Generator: Sketch 64 (93537) - https://sketch.com -->
    <title>hero_blob_3_a</title>
    <desc>Created with Sketch.</desc>
    <g id="Consumer" stroke="none" stroke-width="1" fill="none" fill-rule="evenodd" opacity="0.200000003">
        <g id="Hero-3" transform="translate(-332.000000, -182.000000)" fill="#106756">
            <g transform="translate(79.511063, 46.000000)" id="hero_blob_3_a">
                <path d="M690.223521,175.376709 C748.72761,201.49219 812.782088,236.312832 857.485213,295.898154 C902.188338,355.333387 927.3901,439.683389 891.237573,489.362839 C855.085045,539.192378 757.578229,554.501453 686.473259,570.861151 C615.368288,587.220849 570.665163,604.781258 505.860633,632.547718 C441.056103,660.314178 356.150168,698.136599 294.795879,678.625033 C233.44159,658.963377 195.638947,581.967735 195.488937,509.62485 C195.488937,437.281966 232.991558,369.741928 267.793991,313.158386 C302.446413,256.574843 334.398647,210.947796 377.001625,179.879378 C419.604603,148.660872 472.708316,131.850907 525.812028,132 C578.91574,132.301174 631.719431,149.411317 690.223521,175.376709 Z" style="mix-blend-mode: multiply;" transform="translate(551.988937, 408.000000) rotate(-27.000000) translate(-551.988937, -408.000000) "></path>
            </g>
        </g>
    </g>
</svg>