<?xml version="1.0" encoding="UTF-8"?>
<svg width="23px" height="24px" viewBox="0 0 23 24" version="1.1" xmlns="http://www.w3.org/2000/svg" xmlns:xlink="http://www.w3.org/1999/xlink">
    <!-- Generator: Sketch 64 (93537) - https://sketch.com -->
    <title>tips_and_tricks</title>
    <desc>Created with Sketch.</desc>
    <g id="Consumer" stroke="none" stroke-width="1" fill="none" fill-rule="evenodd">
        <g id="Artboard" transform="translate(-115.000000, -505.000000)">
            <g id="tips_and_tricks" transform="translate(115.000000, 505.000000)">
                <path d="M14.4577416,3.95528173 C16.0192837,5.84032697 17.2805293,7.47127521 18.8961249,10.0004268 C20.5057145,12.5295784 22.4696541,15.9569334 21.8990906,18.8820036 C21.3225212,21.8129831 18.2054428,24.2357685 15.2265008,23.9816715 C12.2475588,23.7216653 9.40675325,20.7788674 6.67405447,19.118373 C3.94135568,17.4578786 1.31676365,17.0737784 0.403862081,15.6555626 C-0.509039493,14.2373467 0.289749384,11.7791059 1.17862723,9.77587598 C2.06750508,7.76673685 3.0464719,6.21260864 4.39780646,4.29210799 C5.74914103,2.37160735 7.47284334,0.0788250457 9.2626109,0.00200502004 C11.0523785,-0.0748150056 12.9022053,2.07023648 14.4577416,3.95528173 Z" id="Path" fill="#683CAF" fill-rule="nonzero" opacity="0.200000003"></path>
                <path d="M20.3807037,5.59133055 C19.3443985,4.57244446 17.938575,4 16.472674,4 C15.006773,4 13.6009495,4.57244446 12.5646443,5.59133055 L11.4997313,6.63785219 L10.4348183,5.59133055 C8.27647308,3.47026062 4.77710411,3.47026064 2.61875892,5.59133061 C0.460413718,7.71240058 0.460413691,11.1513345 2.61875886,13.2724045 L3.68367184,14.3189261 L11.4997313,22 L19.3157908,14.3189261 L20.3807037,13.2724045 C21.4174955,12.2539965 22,10.872452 22,9.43186751 C22,7.99128306 21.4174955,6.60973847 20.3807037,5.59133055 Z" id="Path" stroke="#29166F" stroke-width="2" stroke-linecap="round" stroke-linejoin="round"></path>
            </g>
        </g>
    </g>
</svg>