<?xml version="1.0" encoding="UTF-8"?>
<svg width="28px" height="32px" viewBox="0 0 28 32" version="1.1" xmlns="http://www.w3.org/2000/svg" xmlns:xlink="http://www.w3.org/1999/xlink">
    <title>dosh_blog</title>
    <g id="Consumer" stroke="none" stroke-width="1" fill="none" fill-rule="evenodd">
        <g id="Artboard" transform="translate(-2005.000000, -611.000000)">
            <g id="Group-4-Copy-2" transform="translate(1970.000000, 382.000000)">
                <g id="dosh_blog" transform="translate(35.000000, 229.000000)">
                    <path d="M18.400762,5.27370897 C20.3881793,7.78710263 21.993401,9.96170028 24.0496135,13.3339024 C26.0981821,16.7061046 28.5977415,21.2759112 27.8715698,25.1760049 C27.1377542,29.0839774 23.1705635,32.314358 19.3791828,31.975562 C15.5878021,31.628887 11.9722314,27.7051565 8.49425114,25.4911639 C5.01627086,23.2771714 1.67588101,22.7650379 0.514006284,20.8740834 C-0.647868445,18.9831289 0.368771943,15.7054745 1.50007102,13.0345013 C2.6313701,10.3556491 3.87732787,8.28347818 5.59720823,5.72281066 C7.31708858,3.16214313 9.51089153,0.105100061 11.7887775,0.00267336006 C14.0666635,-0.0997533409 16.4209886,2.76031531 18.400762,5.27370897 Z" id="Path" fill="#683CAF" fill-rule="nonzero" opacity="0.200000003" transform="translate(14.000000, 16.000000) rotate(-180.000000) translate(-14.000000, -16.000000) "></path>
                    <g id="design-tool-quill-2" transform="translate(1.000000, 7.000000)" stroke="#29166F" stroke-linecap="round" stroke-linejoin="round" stroke-width="2">
                        <path d="M0.776,21.232 C0.469467379,15.3722728 2.82674987,9.68772979 7.19009782,5.764522 C11.5534458,1.8413142 17.4557141,0.099464833 23.25,1.025 C22.8154734,3.70241268 21.7907172,6.24961503 20.25,8.482 L15.75,8.482 C15.75,8.482 16.289,9.682 17.216,11.811 C12.8472835,15.7814798 6.91045729,17.5505694 1.081,16.619" id="Path"></path>
                    </g>
                </g>
            </g>
        </g>
    </g>
</svg>