<?xml version="1.0" encoding="UTF-8"?>
<svg width="140px" height="140px" viewBox="0 0 140 140" version="1.1" xmlns="http://www.w3.org/2000/svg" xmlns:xlink="http://www.w3.org/1999/xlink">
    <title>security-graphic-2</title>
    <g id="Consumer" stroke="none" stroke-width="1" fill="none" fill-rule="evenodd">
        <g transform="translate(-137.000000, -2621.000000)" id="Security">
            <g transform="translate(0.000000, 2148.000000)">
                <g id="security-graphic-2" transform="translate(137.000000, 473.000000)">
                    <path d="M139.977259,70.0115556 C139.977259,108.664889 108.641704,139.999704 69.9891111,139.999704 C31.335037,139.999704 -0.000518518519,108.664889 -0.000518518519,70.0115556 C-0.000518518519,31.3574815 31.335037,0.0226666667 69.9891111,0.0226666667 C108.641704,0.0226666667 139.977259,31.3574815 139.977259,70.0115556" id="Fill-24" fill="#84DBAB" opacity="0.100000001"></path>
                    <polygon id="Stroke-1" stroke="#84DBAB" stroke-width="2" stroke-linecap="round" stroke-linejoin="round" points="30.7801418 112.198582 109.219858 112.198582 109.219858 30.7801418 30.7801418 30.7801418"></polygon>
                    <polyline id="Stroke-2" stroke="#FFFFFF" stroke-width="2" stroke-linecap="round" stroke-linejoin="round" points="38.7234043 49.6453901 38.7234043 38.7234043 48.6524823 38.7234043"></polyline>
                    <polyline id="Stroke-3" stroke="#FFFFFF" stroke-width="2" stroke-linecap="round" stroke-linejoin="round" points="101.276596 49.6453901 101.276596 38.7234043 91.3475177 38.7234043"></polyline>
                    <polyline id="Stroke-4" stroke="#FFFFFF" stroke-width="2" stroke-linecap="round" stroke-linejoin="round" points="101.276596 91.3475177 101.276596 102.269504 91.3475177 102.269504"></polyline>
                    <polyline id="Stroke-5" stroke="#FFFFFF" stroke-width="2" stroke-linecap="round" stroke-linejoin="round" points="38.7234043 91.3475177 38.7234043 102.269504 48.6524823 102.269504"></polyline>
                    <g id="Group-27" transform="translate(49.000000, 42.000000)" stroke="#84DBAB" stroke-linecap="round" stroke-linejoin="round" stroke-width="2">
                        <path d="M0.374666667,29.3201481 L0.374666667,34.4534815 C0.374666667,45.8771852 9.63466667,55.1379259 21.0583704,55.1379259 L22.4176296,55.1379259" id="Stroke-6"></path>
                        <path d="M0.374666667,21.5994815 L0.374666667,21.2246667 C0.374666667,9.98911111 9.48281481,0.880962963 20.7176296,0.880962963 C31.9531852,0.880962963 41.0613333,9.98911111 41.0613333,21.2246667 L41.0613333,28.9454074" id="Stroke-8"></path>
                        <path d="M41.0611852,33.1211111 C41.0611852,33.1211111 41.1685926,39.5988889 38.2774815,45.0596296" id="Stroke-10"></path>
                        <path d="M27.8377778,54.4282963 C27.8377778,54.4282963 32.9237037,52.3942222 35.5466667,49.0216296" id="Stroke-12"></path>
                        <path d="M16.2745926,26.6432593 L16.2745926,21.0084444 C16.2745926,18.4062222 18.3842222,16.2965926 20.984963,16.2965926 C23.5871852,16.2965926 25.6968148,18.4062222 25.6968148,21.0084444 L25.6968148,35.2091852" id="Stroke-14"></path>
                        <path d="M27.1419259,46.0768148 C27.1419259,46.0768148 33.2448889,41.9012593 33.298963,33.4960741" id="Stroke-16"></path>
                        <path d="M33.2985926,20.7545926 L33.2985926,20.7545926 C33.2985926,14.0723704 27.8822963,8.65533333 21.1993333,8.65533333 L20.8245185,8.65533333 C14.143037,8.65533333 8.726,14.0723704 8.726,20.7545926 L8.726,35.2094074" id="Stroke-18"></path>
                        <path d="M16.2745926,33.4958519 L16.2745926,33.4958519 C16.2745926,36.9699259 19.0908889,39.7862222 22.564963,39.7862222 L22.699037,39.7862222" id="Stroke-20"></path>
                        <path d="M13.5438519,44.7382222 C13.5438519,44.7382222 15.3379259,47.736 22.4171852,47.8434074" id="Stroke-22"></path>
                    </g>
                </g>
            </g>
        </g>
    </g>
</svg>