<?xml version="1.0" encoding="UTF-8"?>
<svg width="30px" height="32px" viewBox="0 0 30 32" version="1.1" xmlns="http://www.w3.org/2000/svg" xmlns:xlink="http://www.w3.org/1999/xlink">
    <title>covid-icon</title>
    <g id="Consumer" stroke="none" stroke-width="1" fill="none" fill-rule="evenodd">
        <g id="Main-Nav" transform="translate(-2002.000000, -739.000000)">
            <g id="Group-4-Copy-2" transform="translate(1968.000000, 382.000000)">
                <g id="dosh_blog" transform="translate(34.000000, 229.000000)">
                    <g id="covid-icon" transform="translate(0.000000, 128.000000)">
                        <g id="Group-8">
                            <path d="M19.400762,5.27370897 C21.3881793,7.78710263 22.993401,9.96170028 25.0496135,13.3339024 C27.0981821,16.7061046 29.5977415,21.2759112 28.8715698,25.1760049 C28.1377542,29.0839774 24.1705635,32.314358 20.3791828,31.975562 C16.5878021,31.628887 12.9722314,27.7051565 9.49425114,25.4911639 C6.01627086,23.2771714 2.67588101,22.7650379 1.51400628,20.8740834 C0.352131555,18.9831289 1.36877194,15.7054745 2.50007102,13.0345013 C3.6313701,10.3556491 4.87732787,8.28347818 6.59720823,5.72281066 C8.31708858,3.16214313 10.5108915,0.105100061 12.7887775,0.00267336006 C15.0666635,-0.0997533409 17.4209886,2.76031531 19.400762,5.27370897 Z" id="Path-Copy" fill="#683CAF" fill-rule="nonzero" opacity="0.200000003" transform="translate(15.000000, 16.000000) rotate(-180.000000) translate(-15.000000, -16.000000) "></path>
                            <g id="nature-bacteria" transform="translate(0.000000, 2.000000)">
                                <g id="Frame_-_24px">
                                    <rect id="Rectangle" x="0" y="0" width="30" height="30"></rect>
                                </g>
                                <g id="Line_Icons" transform="translate(2.250000, 2.500000)" fill="#29166F" fill-rule="nonzero">
                                    <g id="Group">
                                        <path d="M19.87125,11.24 L21.0887272,10.6749508 C21.7148654,10.3843507 21.9868729,9.64118748 21.6962728,9.01504921 C21.6962652,9.0150328 21.6962576,9.0150164 21.69625,9.015 C21.4056746,8.38898612 20.6626323,8.11705946 20.0366184,8.40763481 C20.0365345,8.40767373 20.0364507,8.40771267 20.0363668,8.40775161 L18.815,8.975 L18.815,8.975 C18.365,8.28625 17.82,7.6675 17.2,7.1325 L17.9264197,5.99385826 C18.297755,5.41180097 18.1269975,4.63892901 17.545,4.2675 C16.9629692,3.89604974 16.1900321,4.06661187 15.8183745,4.64851023 L15.0925,5.785 L15.0925,5.785 C14.36125,5.45125 13.57375,5.22125 12.75,5.1 L12.75,3.75 C12.75,3.05964406 12.1903559,2.5 11.5,2.5 C10.8096441,2.5 10.25,3.05964406 10.25,3.75 L10.25,5.09875 L10.25,5.09875 C9.32125,5.2325 8.44125,5.50875 7.62875,5.91125 L6.86592662,4.79815058 C6.47572266,4.22877133 5.69782676,4.08352105 5.12844751,4.47372502 C5.12813157,4.47394153 5.12781574,4.47415819 5.1275,4.474375 C4.55795591,4.86546194 4.41328684,5.64420675 4.80437228,6.21375187 L5.57,7.32875 L5.57,7.32875 C4.96875,7.88375 4.4475,8.52 4.02,9.22375 L2.77377073,8.69392378 C2.13941746,8.42423264 1.40654466,8.71984971 1.13685352,9.35420298 C1.13665206,9.35467686 1.13645088,9.35515087 1.13625,9.355625 C0.866953704,9.99123331 1.16360745,10.7248292 1.79901924,10.9945888 L3.0425,11.5225 L3.0425,11.5225 C2.8525,12.23375 2.7425,12.97875 2.7425,13.75 C2.7425,13.81875 2.75125,13.8875 2.7525,13.955 L1.42364779,14.1793938 C0.742915248,14.2943442 0.284134408,14.939211 0.39875,15.62 C0.513310407,16.3004612 1.15780277,16.7592145 1.83826398,16.644654 C1.83840262,16.6446307 1.83854125,16.6446073 1.83867988,16.644584 L3.1625,16.42125 L3.1625,16.42125 C3.41625,17.21125 3.7775,17.955 4.23125,18.62875 L3.23461037,19.530194 C2.72251177,19.9933787 2.68267835,20.7839362 3.145625,21.29625 C3.60842722,21.808404 4.3987854,21.8484115 4.91093939,21.3856093 C4.91099377,21.3855601 4.91104815,21.385511 4.91110253,21.3854618 L5.91,20.4825 L5.91,20.4825 C6.5375,21.00375 7.24,21.4375 7.99875,21.7675 L7.64346551,23.0617969 C7.46066567,23.7277343 7.85223069,24.415793 8.518125,24.59875 C9.18316826,24.7814731 9.87041872,24.3904754 10.0531419,23.7254322 C10.0532753,23.7249466 10.0534084,23.7244609 10.0535412,23.7239751 L10.40875,22.425 L10.40875,22.425 C11.2825,22.53375 11.94125,22.52625 12.85875,22.3825 L13.2577435,23.6716058 C13.461806,24.3309101 14.1617029,24.6999564 14.8210071,24.495894 C14.8212965,24.4958044 14.8215857,24.4957148 14.821875,24.495625 C15.4815893,24.2909099 15.8505594,23.5902713 15.6461149,22.9304731 L15.24625,21.64 L15.24625,21.64 C15.99,21.285 16.67625,20.83 17.285,20.2875 L18.318343,21.1616172 C18.845167,21.6072639 19.6335103,21.5414567 20.079157,21.0146327 C20.0792297,21.0145468 20.0793024,21.0144609 20.079375,21.014375 C20.5250276,20.4872553 20.4590719,19.6986864 19.9320474,19.2529211 L18.9,18.38 L18.9,18.38 C19.33125,17.69125 19.67,16.94125 19.89875,16.1425 L21.2337203,16.3220953 C21.9179151,16.414141 22.5472077,15.9341784 22.639375,15.25 C22.7314949,14.5661738 22.2518221,13.9371452 21.5679959,13.8450254 C21.5678049,13.8449996 21.5676139,13.844974 21.5674229,13.8449483 L20.23625,13.66625 L20.23625,13.66625 C20.23,12.82375 20.1025,12.00875 19.87125,11.24 Z M11.4925,20 C8.04625,20 5.2425,17.19625 5.2425,13.75 C5.2425,10.30375 8.04625,7.5 11.4925,7.5 C14.93875,7.5 17.7425,10.30375 17.7425,13.75 C17.7425,17.19625 14.93875,20 11.4925,20 Z" id="Shape"></path>
                                        <circle id="Oval" cx="12.1175" cy="10.625" r="1.875"></circle>
                                        <circle id="Oval" cx="21.5" cy="2.5" r="2.5"></circle>
                                        <circle id="Oval" cx="25.25" cy="7.5" r="1.25"></circle>
                                        <circle id="Oval" cx="12.75" cy="17.5" r="1.25"></circle>
                                        <circle id="Oval" cx="7.7425" cy="15" r="1.25"></circle>
                                    </g>
                                </g>
                            </g>
                        </g>
                    </g>
                </g>
            </g>
        </g>
    </g>
</svg>