<?xml version="1.0" encoding="UTF-8"?>
<svg width="38px" height="32px" viewBox="0 0 38 32" version="1.1" xmlns="http://www.w3.org/2000/svg" xmlns:xlink="http://www.w3.org/1999/xlink">
    <title>TEI-Icon</title>
    <g id="Page-1" stroke="none" stroke-width="1" fill="none" fill-rule="evenodd">
        <g id="TEI-Icon">
            <path d="M13.3286471,7.37877923 C11.6367031,6.91644093 9.7329271,6.45397173 7.36149056,6.55823353 C4.89738178,6.66657173 2.52480265,8.84280503 2.52239157,12.047085 L2.52239157,12.0706548 C2.52973685,14.5514977 3.95657411,17.6454462 7.85530835,20.8715718 C19.5422859,30.5423234 29.74888,30.1740962 33.6319946,20.9507325 C34.4722374,18.9548746 36.4577862,14.7592046 34.8618106,10.572536 C33.5827125,7.21712143 29.249658,4.00187613 27.5547857,4 C26.1953908,3.99849374 24.8490673,4.38761867 23.4246798,5.1775337 C19.4429839,9.29794993 16.8423686,8.33877953 13.3286471,7.37877923 Z" id="Fill-4" fill="#683CAF" fill-rule="nonzero" opacity="0.200000003" transform="translate(18.993358, 15.998430) scale(-1, 1) rotate(192.000000) translate(-18.993358, -15.998430) "></path>
            <g id="data-file-bars-search" stroke-linecap="round" stroke-linejoin="round" transform="translate(9.000000, 8.000000)" stroke="#29166F" stroke-width="2">
                <line x1="8" y1="9.25" x2="8" y2="1.75" id="Path" transform="translate(8.000000, 5.500000) rotate(90.000000) translate(-8.000000, -5.500000) "></line>
                <line x1="6.5" y1="11.25" x2="6.5" y2="6.75" id="Path" transform="translate(6.500000, 9.000000) rotate(90.000000) translate(-6.500000, -9.000000) "></line>
                <path d="M9,20.25 L2.25,20.25 C1.42157288,20.25 0.75,19.5784271 0.75,18.75 L0.75,2.25 C0.75,1.42157288 1.42157288,0.75 2.25,0.75 L12.879,0.75 C13.2765472,0.75 13.6578016,0.907981752 13.939,1.189 L16.811,4.061 C17.0920182,4.34219839 17.25,4.72345279 17.25,5.121 L17.25,8.00264585" id="Path"></path>
            </g>
            <polygon id="Rectangle" fill="#29166F" points="20 18 31 18 31 28 25.5033983 31.7104955 20 28"></polygon>
            <polyline id="Line" stroke="#FFFFFF" stroke-width="2" stroke-linecap="round" stroke-linejoin="round" points="23 24.2148598 25.5376723 26 28 21"></polyline>
        </g>
    </g>
</svg>