<svg id="Warstwa_1" data-name="Warstwa 1" xmlns="http://www.w3.org/2000/svg" xmlns:xlink="http://www.w3.org/1999/xlink" viewBox="0 0 41.591 30.975">
  <defs>
    <linearGradient id="linear-gradient" y1="15.927" x2="41.591" y2="15.927" gradientUnits="userSpaceOnUse">
      <stop offset="0" stop-color="#728696"/>
      <stop offset="1" stop-color="#778fa1"/>
    </linearGradient>
    <linearGradient id="linear-gradient-2" x1="5.307" y1="15.488" x2="36.283" y2="15.488" xlink:href="#linear-gradient"/>
  </defs>
  <title>step-5</title>
  <polygon points="0 11.642 2.319 15.927 0 20.212 41.591 20.212 39.272 15.927 41.591 11.642 0 11.642" fill="url(#linear-gradient)"/>
  <circle cx="20.795" cy="15.488" r="13.935" fill="#fff"/>
  <path d="M20.8,30.975h-.233A15.488,15.488,0,0,1,20.792,0h.234A15.488,15.488,0,0,1,20.8,30.975Zm-.2-2A13.488,13.488,0,1,0,21,2h-.2a13.488,13.488,0,0,0-.2,26.974Z" fill="url(#linear-gradient-2)"/>
  <g>
    <path d="M20.781,18.366A6.6,6.6,0,0,1,16.9,17.044a6.379,6.379,0,0,1-2.452-3.994c-.027-.111-.027-.221-.055-.3a.721.721,0,0,1,.717-.827h.33a5.325,5.325,0,0,0,1.9,3.086,5.7,5.7,0,0,0,3.416,1.212c2.975.055,5.9-2.59,7.741-5.482h0a.681.681,0,0,0-.523-.248H13.591a.653.653,0,0,0-.661.661v8.677a.67.67,0,0,0,.661.662H28a.67.67,0,0,0,.661-.662V12.388C26.236,16.713,23.426,18.366,20.781,18.366Z" fill="#53a7db"/>
    <path d="M28.5,10.763c-1.846,2.893-4.766,5.537-7.741,5.482a5.511,5.511,0,0,1-3.416-1.212,5.326,5.326,0,0,1-1.9-3.085h-.33a.721.721,0,0,0-.717.826,1.449,1.449,0,0,0,.055.3A6.383,6.383,0,0,0,16.9,17.072a6.536,6.536,0,0,0,3.884,1.322c2.618,0,5.427-1.653,7.879-5.95V11.2A.582.582,0,0,0,28.5,10.763Z" fill="#fff"/>
  </g>
</svg>
