<svg width="146px" height="28px" viewBox="0 0 146 28" version="1.1" xmlns="http://www.w3.org/2000/svg" xmlns:xlink="http://www.w3.org/1999/xlink">
    <g id="Symbols" stroke="none" stroke-width="1" fill="none" fill-rule="evenodd">
        <g id="NAV_FAQ_Desktop" transform="translate(-568.000000, -22.000000)" fill="#FEFEFE">
            <g id="logo" transform="translate(568.000000, 22.000000)">
                <path d="M118.432197,17.5423308 C118.432197,18.0750376 118.864943,18.5096241 119.394521,18.5096241 L126.144676,18.5096241 L126.144676,0.644962406 L118.434074,8.78030075 L118.432197,17.5423308 M135.951071,27.3137594 C136.485154,27.3137594 136.915647,26.8814286 136.915647,26.347218 L136.915647,19.5874436 L119.084506,19.5874436 L127.204208,27.3103759 L135.951071,27.3137594 M145.711678,9.76526316 C145.711678,9.23556391 145.280809,8.79984962 144.746727,8.79984962 L137.9992,8.79984962 L137.9992,26.6656391 L145.709802,18.5291729 L145.711678,9.76526316 M128.190928,-0.00015037594 C127.658722,-0.00015037594 127.228228,0.429172932 127.228228,0.95887218 L127.228228,7.72203008 L145.058994,7.72203008 L136.941544,-0.00015037594 L128.190928,-0.00015037594 M58.1859918,3.33631579 L58.2873285,3.33631579 L68.1214982,24.1295489 L63.4198478,24.1295489 C63.4198478,24.1295489 61.5803979,19.9810526 61.5008298,19.8032331 L50.8612206,19.8032331 C50.7816524,19.9810526 48.9422026,24.1295489 48.9422026,24.1295489 L44.3610303,24.1295489 L54.1738067,3.33631579 L58.1859918,3.33631579 M56.2046704,7.77917293 C55.9505779,8.35736842 52.6984185,15.6438346 52.5238941,16.0442105 C52.9570149,16.0442105 59.3922746,16.0178947 59.8231434,16.0178947 C59.648619,15.6201504 56.4610149,8.35962406 56.2046704,7.77917293 M88.2878889,3.36864662 L88.5720072,3.36864662 L86.3084442,6.95210526 L75.5933954,6.95736842 C74.9733645,6.95736842 74.1525368,6.93255639 74.1525368,8.54195489 L74.1547887,9.6043609 C74.1806859,11.2881955 75.0465522,11.3637594 75.5933954,11.3637594 L83.4053337,11.3637594 C87.3143054,11.3637594 89.0633028,13.0408271 89.0633028,17.1506015 L89.0633028,18.1776692 C89.0633028,22.4212782 87.1097553,24.172782 83.4053337,24.172782 L69.8232051,24.172782 L72.1727167,20.4803008 L83.6035033,20.4803008 C84.6048607,20.4803008 84.9689224,19.8280451 84.9925676,18.4363158 L84.9925676,16.9641353 C84.9925676,15.5693985 84.4693697,15.1291729 83.6035033,15.1291729 L74.688871,15.1291729 C71.591344,15.1130075 69.9286704,13.3483459 69.9286704,9.41037594 L69.9286704,9.58067669 C69.9286704,5.49345865 71.4622334,3.37315789 74.7016319,3.37315789 L88.2878889,3.36864662 M19.4487013,3.37315789 L6.57555476,3.37315789 C4.23430026,3.37315789 -7.50642673e-05,4.05473684 -7.50642673e-05,10.6765414 L-7.50642673e-05,17.0761654 C-7.50642673e-05,21.8494737 2.29388895,24.172782 6.45695321,24.172782 L19.7542129,24.1705263 L17.2969841,20.3423308 L7.03870129,20.3306767 C5.19061902,20.3306767 4.29247506,19.4028571 4.29247506,16.8573684 L4.29247506,10.4705263 C4.29247506,8.00360902 5.21426427,7.0618797 7.03870129,7.0618797 L17.4005728,7.0618797 L19.7305676,3.37315789 L19.4487013,3.37315789 M110.497529,3.37842105 L92.9445008,3.37842105 L92.9445008,24.172782 L111.307472,24.172782 L108.912547,20.4803008 L97.1056884,20.4803008 L97.1056884,15.0592481 L108.236218,15.0592481 L108.236218,11.4705263 L97.1056884,11.4705263 L97.1056884,6.95736842 L108.606285,6.95736842 L110.870223,3.37842105 L110.497529,3.37842105 M41.9597244,3.37842105 L42.1147321,3.37842105 L42.1147321,24.172782 L37.9430355,24.172782 L37.9430355,15.0280451 L26.7216781,15.0280451 L26.7216781,24.172782 L22.5608658,24.172782 L22.5608658,3.37842105 L26.7216781,3.37842105 L26.7216781,11.4167669 L37.9430355,11.4167669 L37.9430355,3.37842105 L41.9597244,3.37842105" id="Fill-1"></path>
            </g>
        </g>
    </g>
</svg>